<svg preserveAspectRatio="none" width="100%" height="100%" overflow="visible" style="display: block;" viewBox="0 0 16.6667 16.6667" fill="none" xmlns="http://www.w3.org/2000/svg">
<path id="Vector" d="M10.7288 0L8.78123 1.94578L9.35632 2.52016L8.90472 2.97036L8.33316 2.39633L0 10.7288L1.60778 12.3376C2.61331 11.8225 3.59131 11.9248 4.1664 12.4999C4.74149 13.075 4.84381 14.0523 4.3287 15.0578L5.93754 16.6667L14.2675 8.33668L13.696 7.76159L14.1476 7.30999L14.7227 7.88155L16.6667 5.93754L15.0578 4.3287C14.0523 4.84381 13.075 4.74149 12.4999 4.1664C11.9248 3.59131 11.8225 2.61331 12.3376 1.60778L10.7288 0ZM10.1572 3.31612L11.3533 4.51569L10.9017 4.96729L9.70561 3.76772L10.1572 3.31612ZM8.33316 3.89473L12.7716 8.33316L7.13711 13.9712L2.69375 9.5292L8.10735 4.11701L8.33316 3.89473ZM8.33316 4.79089L3.59131 9.5292L7.13711 13.075L11.8754 8.33316L8.33316 4.79089ZM12.1506 5.31305L13.3502 6.5091L12.8986 6.9607L11.699 5.76466L12.1506 5.31305Z" fill="var(--fill-0, #4B4B4B)"/>
</svg>
