<svg preserveAspectRatio="none" width="100%" height="100%" overflow="visible" style="display: block;" viewBox="0 0 16 16" fill="none" xmlns="http://www.w3.org/2000/svg">
<path id="Vector" d="M8.0068 0.00010192C6.39226 0.00010192 4.93117 0.0969851 3.85691 0.257019C3.31986 0.337019 2.88143 0.430607 2.55148 0.546786C2.3865 0.604875 2.24815 0.666191 2.12778 0.7538C2.01315 0.837265 1.89235 0.969852 1.88103 1.15295H1.85447C1.85447 1.49537 1.86729 1.8331 1.89214 2.16571H0.974934C0.970686 1.89558 0.97504 1.62483 0.988245 1.35467L0.0390329 1.14133C-0.263446 4.76501 1.20753 8.29194 3.91455 10.8037L4.46877 9.79835C4.32015 9.68024 4.1767 9.55842 4.03838 9.43317C4.24535 9.22555 4.47359 9.03368 4.72095 8.86101C5.19775 9.30847 5.71866 9.66152 6.27204 9.90237C7.05493 10.5051 6.55713 10.9 5.44008 11.1338C7.52398 11.4939 6.81893 13.249 4.94002 14.2697C4.86425 14.2789 4.78934 14.2875 4.71769 14.2973C4.29119 14.3556 3.94322 14.4233 3.67664 14.5096C3.54335 14.5527 3.43031 14.5979 3.32594 14.6678C3.22151 14.7376 3.09137 14.8616 3.09137 15.0552C3.09137 15.2489 3.22154 15.3718 3.32594 15.4416C3.43031 15.5114 3.54332 15.5567 3.67664 15.5998C3.94322 15.6861 4.29123 15.7538 4.71769 15.8121C5.57068 15.9289 6.72799 16 8.0068 16C9.28564 16 10.4429 15.9289 11.2959 15.8121C11.7224 15.7538 12.0704 15.6861 12.337 15.5998C12.4702 15.5567 12.5833 15.5114 12.6876 15.4417C12.792 15.3719 12.9222 15.2489 12.9222 15.0553C12.9222 14.8616 12.792 14.7376 12.6876 14.6678C12.5833 14.5979 12.4703 14.5527 12.3369 14.5096C12.0704 14.4233 11.7224 14.3556 11.2958 14.2973C11.2246 14.2875 11.15 14.2788 11.0746 14.2697C9.19554 13.249 8.49054 11.4939 10.5745 11.1338C9.45692 10.8999 8.95909 10.5046 9.74368 9.90135C10.3009 9.65846 10.8251 9.3016 11.3046 8.84929C11.54 9.01143 11.7592 9.19028 11.9585 9.3833C11.8132 9.52503 11.6633 9.6638 11.5082 9.79832L12.0813 10.8036C14.8823 8.3593 16.1949 4.70495 15.9766 1.12211L15.0087 1.39285C15.0246 1.65136 15.0313 1.90886 15.0286 2.16567H14.1225C14.1473 1.83304 14.1601 1.49527 14.1601 1.15288H14.1336C14.1221 0.969784 14.0003 0.837198 13.8857 0.753733C13.7653 0.666089 13.6269 0.604841 13.462 0.546752C13.132 0.430505 12.6936 0.336917 12.1565 0.256917C11.0823 0.0969172 9.62122 0 8.00662 0L8.0068 0.00010192ZM8.0068 0.634938C9.59361 0.634938 11.0311 0.73189 12.0549 0.884382C12.5668 0.960645 12.9775 1.05192 13.2342 1.14235C13.271 1.15533 13.2971 1.16783 13.3272 1.18057C13.2971 1.19331 13.2712 1.20577 13.2342 1.21879C12.9775 1.30921 12.5667 1.40155 12.0549 1.47781C11.0311 1.63034 9.59361 1.72729 8.0068 1.72729C6.42005 1.72729 4.98253 1.6303 3.95873 1.47777C3.44681 1.40151 3.03614 1.30918 2.7794 1.21875C2.74223 1.20564 2.71674 1.19334 2.68647 1.18054C2.71667 1.16776 2.7423 1.1554 2.7794 1.14232C3.03614 1.05189 3.44684 0.960578 3.95876 0.884348C4.98253 0.731822 6.42002 0.634938 8.0068 0.634938ZM1.02365 3.07652H1.99169C2.27693 5.04265 2.99111 6.7735 3.98089 8.04467C3.73399 8.23966 3.50625 8.45123 3.30159 8.67951C1.93335 7.10138 1.21135 5.12462 1.02365 3.07652ZM14.023 3.07652H14.9789C14.7812 5.10227 13.9962 7.02227 12.6755 8.60732C12.4829 8.40163 12.2717 8.20885 12.0438 8.03085C13.0284 6.76104 13.7386 5.03552 14.023 3.07655V3.07652Z" fill="var(--fill-0, white)"/>
</svg>
