<svg preserveAspectRatio="none" width="100%" height="100%" overflow="visible" style="display: block;" viewBox="0 0 18 18" fill="none" xmlns="http://www.w3.org/2000/svg">
<g id="Group 1000003135">
<path id="Vector" d="M8.99999 18C4.03745 18 0 13.9625 0 8.99999C0 4.03745 4.03745 0 8.99999 0C13.9625 0 18 4.03745 18 8.99999C18 13.9625 13.9625 18 8.99999 18ZM8.99999 1.57659C4.90643 1.57659 1.57659 4.90689 1.57659 8.99999C1.57659 13.0931 4.90689 16.4234 8.99999 16.4234C13.0931 16.4234 16.4234 13.0931 16.4234 8.99999C16.4234 4.90689 13.0931 1.57659 8.99999 1.57659Z" fill="var(--fill-0, white)"/>
<path id="Vector_2" d="M9.00001 12.5914C7.02001 12.5914 5.40864 10.9805 5.40864 9.00001C5.40864 7.01954 7.01954 5.40864 9.00001 5.40864C10.9805 5.40864 12.5914 7.01954 12.5914 9.00001C12.5914 10.9805 10.9805 12.5914 9.00001 12.5914ZM9.00001 6.98522C7.88899 6.98522 6.98523 7.88898 6.98523 9.00001C6.98523 10.111 7.88899 11.0148 9.00001 11.0148C10.111 11.0148 11.0148 10.111 11.0148 9.00001C11.0148 7.88898 10.111 6.98522 9.00001 6.98522Z" fill="var(--fill-0, white)"/>
<path id="Vector_3" d="M9.00001 9.92974C9.51348 9.92974 9.92973 9.51349 9.92973 9.00002C9.92973 8.48655 9.51348 8.0703 9.00001 8.0703C8.48654 8.0703 8.07029 8.48655 8.07029 9.00002C8.07029 9.51349 8.48654 9.92974 9.00001 9.92974Z" fill="var(--fill-0, white)"/>
<path id="Vector_4" d="M6.1974 8.21172H0.788321V9.7883H6.1974V8.21172Z" fill="var(--fill-0, white)"/>
<path id="Vector_5" d="M17.2122 8.21172H11.8031V9.7883H17.2122V8.21172Z" fill="var(--fill-0, white)"/>
</g>
</svg>
