<svg preserveAspectRatio="none" width="100%" height="100%" overflow="visible" style="display: block;" viewBox="0 0 13 16" fill="none" xmlns="http://www.w3.org/2000/svg">
<g id="Vector">
<path d="M0.0147161 12.9948V0.956579C0.0147161 0.542328 0.671313 -0.0428593 1.10681 0.00248419L11.9753 0.00436637C12.3897 0.00128644 13 0.553792 13 0.956579V12.7351L12.8803 12.7888L0.794639 12.7857L0.0147161 12.9948ZM6.42889 2.43614C6.31585 2.45805 6.22975 2.53915 6.17572 2.63497C5.93026 3.07027 5.82186 3.74169 5.58756 4.19598C5.53113 4.30549 5.46921 4.36264 5.36132 4.42065C4.91913 4.65815 4.16905 4.77056 3.77437 5.0197C3.52857 5.17472 3.53097 5.5041 3.77437 5.65793C4.16836 5.90689 4.91947 6.01965 5.36132 6.25697C5.46903 6.31481 5.53095 6.37179 5.58756 6.48164C5.81466 6.92224 5.93987 7.67511 6.18738 8.06558C6.34295 8.31095 6.67245 8.30821 6.82717 8.06558C7.07416 7.67819 7.1992 6.92292 7.42699 6.48147C7.48136 6.37623 7.54706 6.3107 7.65272 6.25629C8.09079 6.03077 8.84327 5.90963 9.24035 5.65793C9.48597 5.50222 9.48374 5.17403 9.24035 5.01952C8.84395 4.76783 8.09028 4.64651 7.65272 4.42116C7.54757 4.36709 7.48153 4.30173 7.42699 4.19598C7.17948 3.71586 7.06764 3.07882 6.81482 2.5898C6.72905 2.46814 6.57348 2.40808 6.42906 2.43614H6.42889ZM3.37317 9.9197C2.94419 10.0419 2.98261 10.6206 3.43389 10.6746H9.581C10.0621 10.6168 10.0621 9.96881 9.581 9.91097L3.37317 9.9197Z" fill="var(--fill-0, white)"/>
<path d="M1.21247 13.5145H12.9479L13 13.5665V15.7144C13 15.7892 12.817 15.9829 12.7233 15.9926L0.978514 16C-0.444113 15.6954 -0.272073 13.5485 1.21247 13.5148V13.5145Z" fill="var(--fill-0, white)"/>
</g>
</svg>
