<svg preserveAspectRatio="none" width="100%" height="100%" overflow="visible" style="display: block;" viewBox="0 0 17 17" fill="none" xmlns="http://www.w3.org/2000/svg">
<g id="Shape">
<path d="M12.3267 0.0254713C12.7177 0.131587 12.9498 0.538771 12.845 0.934941L12.5507 2.04855C12.4459 2.44472 12.0441 2.67986 11.6531 2.57374C11.2621 2.46762 11.0301 2.06044 11.1348 1.66427L11.4292 0.550661C11.5339 0.154491 11.9358 -0.0806446 12.3267 0.0254713Z" fill="var(--fill-0, white)"/>
<path d="M14.4627 7.45325C14.5642 7.05623 14.9642 6.8178 15.356 6.92069L16.4508 7.20819C16.8426 7.31109 17.0779 7.71635 16.9764 8.11337C16.8748 8.51039 16.4749 8.74882 16.0831 8.64593L14.9883 8.35842C14.5965 8.25553 14.3612 7.85027 14.4627 7.45325Z" fill="var(--fill-0, white)"/>
<path d="M13.7221 3.72074C13.3716 3.92581 13.2515 4.37999 13.4539 4.73518C13.6563 5.09036 14.1045 5.21206 14.455 5.00699L15.3624 4.47617C15.7129 4.2711 15.833 3.81692 15.6306 3.46173C15.4283 3.10654 14.98 2.98485 14.6295 3.18992L13.7221 3.72074Z" fill="var(--fill-0, white)"/>
<path d="M10.1741 1.83853C9.66236 0.940416 8.42332 0.835922 7.77213 1.63601C6.9833 2.6052 6.01222 3.79023 5.20674 4.75521C5.09339 4.89099 4.95442 5.09371 4.82053 5.28903C4.69266 5.47554 4.56942 5.65532 4.47756 5.76359L7.91856 11.8723C8.06357 11.8463 8.29996 11.8116 8.53929 11.7765C8.75531 11.7447 8.97408 11.7126 9.12979 11.6863C9.8854 11.5588 10.7515 11.4358 11.5941 11.3161C12.1281 11.2403 12.6527 11.1658 13.1336 11.0924C14.1557 10.9363 14.7028 9.78663 14.1857 8.87909L10.1741 1.83853Z" fill="var(--fill-0, white)"/>
<path d="M2.68934 13.926C3.2818 14.0834 3.87935 13.8099 4.40978 13.4996L6.82429 12.0871L3.64765 6.51194C3.59723 6.54339 3.53497 6.58152 3.46179 6.62579C3.29383 6.72737 3.07549 6.85694 2.82509 7.00409C2.32468 7.29816 1.70317 7.65838 1.1151 7.99736C0.0544233 8.60876 -0.316624 9.97918 0.295071 11.0527L1.33622 12.88C1.64277 13.418 2.13855 13.7796 2.68934 13.926Z" fill="var(--fill-0, white)"/>
<path d="M4.59578 14.4962L7.36413 12.8979L8.18374 14.3555C8.69037 15.2565 8.6131 16.2686 7.72391 16.782C6.83472 17.2954 5.92202 16.8548 5.41539 15.9538L4.59578 14.4962Z" fill="var(--fill-0, white)"/>
</g>
</svg>
