<svg preserveAspectRatio="none" width="100%" height="100%" overflow="visible" style="display: block;" viewBox="0 0 18 18" fill="none" xmlns="http://www.w3.org/2000/svg">
<path id="Shape" d="M10.014 1.01176C10.014 0.452981 9.56095 0 9.00207 0C8.4432 0 7.99014 0.452981 7.99014 1.01176V7.98169H1.01193C0.453057 7.98169 0 8.43468 0 8.99346C0 9.55224 0.453058 10.0052 1.01193 10.0052H7.99014V16.9882C7.99014 17.547 8.4432 18 9.00207 18C9.56095 18 10.014 17.547 10.014 16.9882V10.0052H16.9881C17.547 10.0052 18 9.55224 18 8.99346C18 8.43468 17.547 7.98169 16.9881 7.98169H10.014V1.01176Z" fill="var(--fill-0, white)"/>
</svg>
