<svg preserveAspectRatio="none" width="100%" height="100%" overflow="visible" style="display: block;" viewBox="0 0 16 15" fill="none" xmlns="http://www.w3.org/2000/svg">
<g id="Vector">
<path d="M10.4073 14.9976L5.60773 15C5.10786 15.0002 4.67872 14.6557 4.46044 14.2676C4.19575 13.7974 4.16354 13.2133 4.45323 12.7582L6.8458 8.99897L0.560154 8.99426C0.231488 8.99402 0.00734681 8.67185 0.000138244 8.36333C-0.00661979 8.07504 0.235092 7.71639 0.572318 7.71616L15.4109 7.70815C15.7529 7.70815 16.0124 8.00821 15.9993 8.36591C15.9874 8.69326 15.7247 8.98202 15.3747 8.98226L9.1629 8.98437L11.5489 12.7589C11.831 13.2049 11.806 13.7831 11.5507 14.2495C11.3399 14.635 10.9177 14.9974 10.4073 14.9976Z" fill="var(--fill-0, white)"/>
<path d="M14.6743 6.41311L11.1649 6.41264C10.455 6.41264 9.93422 5.781 9.84749 5.07523V1.34729C9.94954 0.599868 10.4812 0.0701297 11.2016 0H14.6461C15.3665 0.0696591 15.8984 0.599397 16 1.34753L15.9991 5.09759C15.8934 5.79653 15.3938 6.41334 14.6743 6.41311Z" fill="var(--fill-0, white)"/>
<path d="M3.07752 6.43193C4.77686 6.43193 6.15445 4.9931 6.15445 3.2182C6.15445 1.44331 4.77686 0.00447137 3.07752 0.00447137C1.37818 0.00447137 0.000588468 1.44331 0.000588468 3.2182C0.000588468 4.9931 1.37818 6.43193 3.07752 6.43193Z" fill="var(--fill-0, white)"/>
</g>
</svg>
