<svg preserveAspectRatio="none" width="100%" height="100%" overflow="visible" style="display: block;" viewBox="0 0 18 18" fill="none" xmlns="http://www.w3.org/2000/svg">
<path id="Shape" fill-rule="evenodd" clip-rule="evenodd" d="M7.44034 2.45455C4.68649 2.45455 2.45406 4.68742 2.45406 7.44181C2.45406 10.1962 4.68649 12.4291 7.44034 12.4291C8.81832 12.4291 10.0638 11.8716 10.9676 10.9669C11.8704 10.0632 12.4266 8.81862 12.4266 7.44181C12.4266 4.68742 10.1942 2.45455 7.44034 2.45455ZM0 7.44181C0 3.33181 3.33115 0 7.44034 0C11.5495 0 14.8807 3.33181 14.8807 7.44181C14.8807 9.05231 14.3682 10.5445 13.4988 11.7623L17.6406 15.9049C18.1198 16.3842 18.1198 17.1613 17.6406 17.6405C17.1614 18.1198 16.3845 18.1198 15.9053 17.6405L11.7642 13.4985C10.5459 14.3699 9.05236 14.8836 7.44034 14.8836C3.33115 14.8836 0 11.5518 0 7.44181Z" fill="var(--fill-0, white)"/>
</svg>
