<svg preserveAspectRatio="none" width="100%" height="100%" overflow="visible" style="display: block;" viewBox="0 0 16 16" fill="none" xmlns="http://www.w3.org/2000/svg">
<path id="Shape" d="M9.162 1.16618C9.1643 0.524492 8.64603 0.00240778 8.00434 8.29488e-06C7.36266 -0.00239133 6.84049 0.516155 6.838 1.15784C6.83033 3.29435 6.27216 4.6392 5.41312 5.46896C4.54452 6.30794 3.17369 6.80931 1.14552 6.8381C0.507038 6.84717 -0.00450257 7.36972 2.9888e-05 8.00825C0.00456234 8.64677 0.523469 9.16201 1.16201 9.16201C3.41493 9.16201 4.75315 9.75712 5.55245 10.6215C6.36956 11.5051 6.82036 12.8805 6.83803 14.8484C6.84368 15.4768 7.34784 15.9868 7.97609 15.9997C8.60435 16.0127 9.12906 15.5238 9.16055 14.8962C9.26488 12.8166 9.81775 11.4208 10.6764 10.5454C11.5208 9.68454 12.8312 9.15442 14.8336 9.162C15.4714 9.16441 15.9919 8.65234 15.9999 8.01462C16.0079 7.3769 15.5005 6.85189 14.8628 6.83825C12.6658 6.79125 11.2956 6.21032 10.4651 5.34778C9.63208 4.48262 9.15433 3.13902 9.162 1.16618Z" fill="var(--fill-0, white)"/>
</svg>
