<svg preserveAspectRatio="none" width="100%" height="100%" overflow="visible" style="display: block;" viewBox="0 0 16 16" fill="none" xmlns="http://www.w3.org/2000/svg">
<g id="Shape">
<path fill-rule="evenodd" clip-rule="evenodd" d="M5.03557 1.45455C5.03557 0.651222 5.69918 0 6.51778 0H9.48222C10.3008 0 10.9644 0.651222 10.9644 1.45455V2.13492C11.2168 2.25799 11.46 2.39627 11.693 2.54855L12.2942 2.20792C13.0031 1.80626 13.9097 2.04462 14.319 2.74032L15.8012 5.25967C16.2105 5.95537 15.9676 6.84495 15.2586 7.24661L14.6569 7.58752C14.6656 7.72393 14.67 7.86146 14.67 8C14.67 8.13856 14.6656 8.27612 14.6569 8.41255L15.2585 8.75339C15.9674 9.15505 16.2103 10.0446 15.801 10.7403L14.3188 13.2597C13.9095 13.9554 13.003 14.1937 12.2941 13.7921L11.6929 13.4515C11.46 13.6038 11.2168 13.742 10.9644 13.8651V14.5455C10.9644 15.3488 10.3008 16 9.48222 16H6.51778C5.69918 16 5.03557 15.3488 5.03557 14.5455V13.8651C4.78324 13.742 4.53999 13.6038 4.30705 13.4515L3.70592 13.7921C2.99698 14.1937 2.09048 13.9554 1.68117 13.2597L0.198958 10.7403C-0.210345 10.0446 0.0325534 9.15504 0.741486 8.75337L1.34306 8.41254C1.33442 8.27611 1.33003 8.13856 1.33003 8C1.33003 7.86146 1.33442 7.72393 1.34306 7.58753L0.741355 7.24663C0.0324223 6.84496 -0.210476 5.95538 0.198827 5.25968L1.68104 2.74033C2.09034 2.04464 2.99685 1.80627 3.70579 2.20793L4.30699 2.54856C4.53995 2.39627 4.78322 2.25799 5.03557 2.13492V1.45455ZM8.0002 11.6364C10.0467 11.6364 11.7057 10.0083 11.7057 8C11.7057 5.99169 10.0467 4.36364 8.0002 4.36364C5.95369 4.36364 4.29466 5.99169 4.29466 8C4.29466 10.0083 5.95369 11.6364 8.0002 11.6364Z" fill="var(--fill-0, white)"/>
<path d="M10.2235 8C10.2235 9.20499 9.22811 10.1818 8.0002 10.1818C6.77229 10.1818 5.77688 9.20499 5.77688 8C5.77688 6.79502 6.77229 5.81818 8.0002 5.81818C9.22811 5.81818 10.2235 6.79502 10.2235 8Z" fill="var(--fill-0, white)"/>
</g>
</svg>
