<svg preserveAspectRatio="none" width="100%" height="100%" overflow="visible" style="display: block;" viewBox="0 0 16 16" fill="none" xmlns="http://www.w3.org/2000/svg">
<path id="Shape" fill-rule="evenodd" clip-rule="evenodd" d="M9.51368 0.953246C8.87037 -0.317753 7.12963 -0.317744 6.48631 0.953248L0.201387 13.3704C-0.402501 14.5635 0.424409 16 1.71507 16H14.2849C15.5756 16 16.4025 14.5635 15.7986 13.3704L9.51368 0.953246ZM7.99997 5.25136C7.52701 5.25136 7.1436 5.65239 7.1436 6.14708V9.72996C7.1436 10.2247 7.52701 10.6257 7.99997 10.6257C8.47292 10.6257 8.85633 10.2247 8.85633 9.72996V6.14708C8.85633 5.65239 8.47292 5.25136 7.99997 5.25136ZM7.99997 13.3128C8.47292 13.3128 8.85633 12.9118 8.85633 12.4171C8.85633 11.9224 8.47292 11.5214 7.99997 11.5214C7.52701 11.5214 7.1436 11.9224 7.1436 12.4171C7.1436 12.9118 7.52701 13.3128 7.99997 13.3128Z" fill="var(--fill-0, white)"/>
</svg>
