<svg preserveAspectRatio="none" width="100%" height="100%" overflow="visible" style="display: block;" viewBox="0 0 12 16" fill="none" xmlns="http://www.w3.org/2000/svg">
<path id="Subtract" d="M11 4C11.5523 4 12 4.44772 12 5V15C12 15.5523 11.5523 16 11 16H1C0.447715 16 1.61065e-08 15.5523 0 15V5C0 4.44772 0.447715 4 1 4H11ZM6.00195 7C5.76132 6.9991 5.56539 7.19394 5.56445 7.43457C5.56151 8.23536 5.35224 8.73965 5.03027 9.05078C4.70457 9.36538 4.19019 9.55364 3.42969 9.56445C3.19031 9.56785 2.99839 9.76356 3 10.0029C3.0017 10.2423 3.19619 10.4354 3.43555 10.4355C4.28039 10.4355 4.78229 10.6593 5.08203 10.9834C5.38838 11.3148 5.55783 11.8305 5.56445 12.5684C5.56668 12.8039 5.75568 12.9952 5.99121 13C6.22673 13.0048 6.42374 12.8212 6.43555 12.5859C6.47469 11.8062 6.68194 11.2824 7.00391 10.9541C7.32055 10.6315 7.81193 10.4327 8.5625 10.4355C8.80154 10.4365 8.99679 10.2448 9 10.0059C9.00301 9.76671 8.81235 9.56957 8.57324 9.56445C7.74989 9.54679 7.23623 9.32903 6.9248 9.00586C6.61245 8.68145 6.4327 8.17722 6.43555 7.4375C6.43641 7.19698 6.24244 7.00107 6.00195 7ZM11 0C11.5523 0 12 0.447715 12 1V2C12 2.55228 11.5523 3 11 3H1C0.447715 3 1.61065e-08 2.55228 0 2V1C0 0.447715 0.447715 1.61064e-08 1 0H11Z" fill="var(--fill-0, white)"/>
</svg>
