<svg preserveAspectRatio="none" width="100%" height="100%" overflow="visible" style="display: block;" viewBox="0 0 12.2449 9.33333" fill="none" xmlns="http://www.w3.org/2000/svg">
<path id="Vector" d="M10.3659 0.773682C9.5854 0.415578 8.74849 0.151743 7.87344 0.000633884C7.8575 -0.00228248 7.84158 0.00500567 7.83338 0.0195823C7.72574 0.211019 7.60652 0.460764 7.52303 0.657062C6.58186 0.516159 5.64552 0.516159 4.72365 0.657062C4.64014 0.456401 4.51659 0.211019 4.40847 0.0195823C4.40026 0.00549202 4.38434 -0.00179613 4.3684 0.000633884C3.49384 0.15126 2.65693 0.415096 1.87599 0.773682C1.86923 0.776597 1.86344 0.78146 1.85959 0.787773C0.272139 3.15939 -0.16273 5.47272 0.0506022 7.75736C0.0515675 7.76854 0.0578419 7.77923 0.0665298 7.78603C1.11389 8.55518 2.12843 9.02213 3.12413 9.33163C3.14007 9.33649 3.15695 9.33067 3.16709 9.31754C3.40262 8.9959 3.61258 8.65675 3.7926 8.30009C3.80322 8.27921 3.79308 8.25442 3.77137 8.24616C3.43834 8.11983 3.12123 7.9658 2.8162 7.79089C2.79207 7.7768 2.79014 7.74229 2.81233 7.72577C2.87652 7.67767 2.94073 7.62762 3.00203 7.57709C3.01312 7.56786 3.02857 7.56591 3.04161 7.57174C5.04557 8.48668 7.21509 8.48668 9.19541 7.57174C9.20845 7.56543 9.2239 7.56738 9.23547 7.5766C9.29678 7.62714 9.36097 7.67767 9.42565 7.72577C9.44784 7.74229 9.4464 7.7768 9.42227 7.79089C9.11723 7.9692 8.80012 8.11983 8.46661 8.24568C8.4449 8.25394 8.43524 8.27921 8.44586 8.30009C8.62974 8.65625 8.8397 8.9954 9.07089 9.31706C9.08055 9.33067 9.09792 9.33649 9.11385 9.33163C10.1144 9.02213 11.1289 8.55518 12.1763 7.78603C12.1854 7.77923 12.1912 7.76902 12.1922 7.75785C12.4475 5.11655 11.7646 2.82219 10.3818 0.788255C10.3784 0.78146 10.3726 0.776597 10.3659 0.773682ZM4.09186 6.36625C3.48853 6.36625 2.9914 5.81235 2.9914 5.1321C2.9914 4.45185 3.47889 3.89795 4.09186 3.89795C4.70964 3.89795 5.20196 4.45672 5.1923 5.1321C5.1923 5.81235 4.70481 6.36625 4.09186 6.36625ZM8.16061 6.36625C7.5573 6.36625 7.06017 5.81235 7.06017 5.1321C7.06017 4.45185 7.54764 3.89795 8.16061 3.89795C8.77841 3.89795 9.27071 4.45672 9.26107 5.1321C9.26107 5.81235 8.77841 6.36625 8.16061 6.36625Z" fill="var(--fill-0, white)"/>
</svg>
