<svg preserveAspectRatio="none" width="100%" height="100%" overflow="visible" style="display: block;" viewBox="0 0 14 16" fill="none" xmlns="http://www.w3.org/2000/svg">
<path id="Icon" d="M8.12064 0.327081C7.43122 -0.109027 6.56878 -0.109027 5.87936 0.327081L5.38086 0.642418C4.17131 1.40754 2.81343 1.87705 1.40776 2.01617L1.09369 2.04725C0.473742 2.10861 0 2.65538 0 3.30953V4.97691C0 7.79526 1.08919 10.4928 3.01805 12.4517L6.16116 15.6437C6.62896 16.1188 7.37104 16.1188 7.83884 15.6437L10.9819 12.4517C12.9108 10.4928 14 7.79526 14 4.97691V3.30953C14 2.65538 13.5263 2.10861 12.9063 2.04725L12.5922 2.01617C11.1866 1.87704 9.82868 1.40754 8.61914 0.642417L8.12064 0.327081Z" fill="var(--fill-0, white)"/>
</svg>
