<svg preserveAspectRatio="none" width="100%" height="100%" overflow="visible" style="display: block;" viewBox="0 0 8 16" fill="none" xmlns="http://www.w3.org/2000/svg">
<path id="Icon" d="M5.6472 0.111507C4.39553 -0.0371691 3.13174 -0.037169 1.88008 0.111507L0.583953 0.265464C0.39223 0.288237 0.242314 0.44862 0.225257 0.649203L0.12563 1.82077C-0.0418766 3.79055 -0.0418767 5.77195 0.12563 7.74174L0.225257 8.9133C0.243859 9.13205 0.419457 9.29976 0.629893 9.29976H2.31283V15.576C2.31283 15.7561 2.42187 15.9166 2.58474 15.9761C2.74762 16.0357 2.92876 15.9813 3.03647 15.8406L3.35389 15.4259C5.24642 12.9531 6.75342 10.1843 7.81935 7.2215L7.97408 6.79144C8.02092 6.66124 8.00359 6.51535 7.92771 6.40102C7.85182 6.2867 7.72703 6.21849 7.59377 6.21849H5.38952L7.27885 0.83241C7.32167 0.710338 7.30846 0.574512 7.243 0.463912C7.17755 0.353312 7.06709 0.280165 6.94332 0.265464L5.6472 0.111507Z" fill="var(--fill-0, white)"/>
</svg>
