<svg preserveAspectRatio="none" width="100%" height="100%" overflow="visible" style="display: block;" viewBox="0 0 16 18" fill="none" xmlns="http://www.w3.org/2000/svg">
<g id="Vector">
<path d="M7.06757 0.170411C7.6692 -0.0568037 8.3308 -0.0568038 8.93243 0.170411L9.06038 0.2224L14.3675 2.54936C15.4703 3.03276 16.1279 4.20452 15.9791 5.42221L15.4288 9.92285C15.203 11.7702 14.2996 13.461 12.9014 14.653L9.72377 17.3618C8.7254 18.2127 7.2746 18.2127 6.27623 17.3618L3.09861 14.653C1.70045 13.461 0.79699 11.7702 0.571231 9.92285L0.020887 5.42221C-0.127924 4.20452 0.529739 3.03276 1.63248 2.54936L6.93962 0.2224L7.06757 0.170411ZM8.35317 1.91025C8.12757 1.81144 7.87243 1.81144 7.64683 1.91025L2.33882 4.23632C1.97129 4.39747 1.75289 4.78867 1.80249 5.19453L2.35196 9.69517C2.5213 11.0808 3.19957 12.349 4.24837 13.243L7.42512 15.9518C7.73707 16.2177 8.18151 16.2337 8.51003 16.0011L8.57488 15.9518L11.7516 13.243C12.735 12.4048 13.3926 11.2378 13.6104 9.95332L13.648 9.69517L14.1975 5.19453C14.2409 4.83937 14.0793 4.49536 13.7918 4.30713L13.6612 4.23632L8.35317 1.91025Z" fill="var(--fill-0, white)"/>
<path d="M12.0873 5.58085C12.4996 5.86205 12.6111 6.4319 12.3361 6.85369L9.04986 11.8948C8.57868 12.6178 7.57881 12.7189 6.97818 12.1046L4.67339 9.74715C4.32295 9.3887 4.32295 8.80767 4.67339 8.44922C5.02384 8.09076 5.59189 8.09077 5.94234 8.44922L7.86066 10.4105L10.8429 5.83542C11.1178 5.41363 11.6749 5.29966 12.0873 5.58085Z" fill="var(--fill-0, white)"/>
</g>
</svg>
