<svg preserveAspectRatio="none" width="100%" height="100%" overflow="visible" style="display: block;" viewBox="0 0 16.6484 16.2721" fill="none" xmlns="http://www.w3.org/2000/svg">
<path id="Union" d="M11.4143 7.18073C11.543 6.90391 11.8731 6.7837 12.1497 6.91218L16.3284 8.85554C16.6049 8.98435 16.7255 9.31324 16.597 9.58991L13.6399 15.9522C13.511 16.2289 13.181 16.349 12.9046 16.2208L8.72586 14.2784C8.44927 14.1496 8.32868 13.8202 8.45731 13.543L11.4143 7.18073ZM3.42508 14.2149C3.58956 14.8312 4.22225 15.1992 4.83914 15.0352L6.20731 14.671L3.54715 15.8165C3.26652 15.9371 2.94046 15.8071 2.81961 15.5264L0.045198 9.08308C-0.0756185 8.80251 0.054196 8.47625 0.33426 8.35554L1.70828 7.76472L3.42508 14.2149ZM3.64481 7.35358C3.56014 7.98553 4.00322 8.56798 4.63602 8.65339L7.43387 9.03034L6.2952 12.8673C6.17815 13.2625 6.28191 13.6716 6.53543 13.96L4.68485 14.4522C4.38976 14.5307 4.08663 14.3549 4.00809 14.0596L2.2034 7.27936C2.12506 6.98433 2.30131 6.68088 2.59598 6.60261L3.78836 6.28522L3.64481 7.35358ZM12.3889 7.66901C12.1274 7.54642 11.8155 7.65851 11.6927 7.91999L9.94168 11.6544C9.81908 11.9159 9.93129 12.2278 10.1927 12.3507L13.4173 13.8624C13.6789 13.985 13.9908 13.8729 14.1136 13.6114L15.8645 9.87702C15.9872 9.61544 15.875 9.3036 15.6136 9.18073L12.3889 7.66901ZM9.55789 5.93854L11.2776 6.45026C11.105 6.56425 10.9608 6.72596 10.8675 6.92683L7.91043 13.2891C7.81979 13.4849 7.78792 13.6929 7.80789 13.8926L7.24637 13.7257C6.95354 13.6383 6.78664 13.3311 6.87332 13.0382L8.87039 6.31257C8.95744 6.0196 9.26556 5.85206 9.55789 5.93854ZM5.80106 0.00495016L10.3684 0.621161C10.6707 0.66204 10.8836 0.940949 10.843 1.24323L10.2669 5.52058L9.72879 5.3614C9.11688 5.17968 8.47382 5.52956 8.29227 6.14069L7.6077 8.44538L4.71707 8.05573C4.41484 8.01472 4.2019 7.73611 4.24246 7.43366L5.17996 0.47956C5.22082 0.177269 5.49932 -0.0355824 5.80106 0.00495016ZM6.27762 0.569403C5.99141 0.530055 5.72733 0.730475 5.68778 1.01667L5.06961 5.49811C5.03016 5.78426 5.22987 6.04819 5.5159 6.08796L7.79813 6.40339C8.12612 5.21983 8.46215 4.73362 9.44559 4.73347C9.57907 4.73351 9.74455 4.78254 9.9075 4.84382L10.347 1.65925C10.3863 1.37307 10.1858 1.10898 9.89969 1.0694L6.27762 0.569403Z" fill="var(--fill-0, white)"/>
</svg>
