<svg preserveAspectRatio="none" width="100%" height="100%" overflow="visible" style="display: block;" viewBox="0 0 14 18" fill="none" xmlns="http://www.w3.org/2000/svg">
<g id="Shape">
<path d="M10.7563 6.5636L7.875 9.52721L7.875 0.9C7.875 0.402943 7.48325 0 7 0C6.51675 0 6.125 0.402943 6.125 0.9L6.125 9.52721L3.24372 6.5636C2.90201 6.21213 2.34799 6.21213 2.00628 6.5636C1.66457 6.91507 1.66457 7.48492 2.00628 7.83639L6.38128 12.3364C6.72299 12.6879 7.27701 12.6879 7.61872 12.3364L11.9937 7.8364C12.3354 7.48492 12.3354 6.91508 11.9937 6.5636C11.652 6.21213 11.098 6.21213 10.7563 6.5636Z" fill="var(--fill-0, white)"/>
<path d="M1.75 12.6C1.75 12.1029 1.35825 11.7 0.875 11.7C0.391751 11.7 0 12.1029 0 12.6V15.3C0 16.7912 1.17525 18 2.625 18H11.375C12.8247 18 14 16.7912 14 15.3V12.6C14 12.1029 13.6082 11.7 13.125 11.7C12.6418 11.7 12.25 12.1029 12.25 12.6V15.3C12.25 15.7971 11.8582 16.2 11.375 16.2H2.625C2.14175 16.2 1.75 15.7971 1.75 15.3V12.6Z" fill="var(--fill-0, white)"/>
</g>
</svg>
