<svg preserveAspectRatio="none" width="100%" height="100%" overflow="visible" style="display: block;" viewBox="0 0 14 16" fill="none" xmlns="http://www.w3.org/2000/svg">
<g id="Shape">
<path fill-rule="evenodd" clip-rule="evenodd" d="M1.1485 10.5681C2.17074 9.10241 3.98118 8 7 8C10.0188 8 11.8293 9.10241 12.8515 10.5681C13.8395 11.9847 13.9968 13.6084 14 14.5069C14.0031 15.4103 13.2668 16 12.5118 16H1.48821C0.733233 16 -0.00314926 15.4103 1.013e-05 14.5069C0.00315209 13.6084 0.160512 11.9847 1.1485 10.5681Z" fill="white"/>
<path fill-rule="evenodd" clip-rule="evenodd" d="M7.00008 6.4C8.71831 6.4 10.1112 4.96731 10.1112 3.2C10.1112 1.43269 8.71831 0 7.00008 0C5.28185 0 3.88895 1.43269 3.88895 3.2C3.88895 4.96731 5.28185 6.4 7.00008 6.4Z" fill="white"/>
</g>
</svg>
