<svg preserveAspectRatio="none" width="100%" height="100%" overflow="visible" style="display: block;" viewBox="0 0 18 18" fill="none" xmlns="http://www.w3.org/2000/svg">
<g id="Vector">
<path d="M5.85006 16.6126C3.86253 16.6126 2.24252 15.0001 2.24252 13.005V11.355C2.24252 10.8525 2.73752 10.515 3.21003 10.68C3.40503 10.7475 3.60003 10.7925 3.80253 10.8225C3.89253 10.8375 3.98253 10.8525 4.07254 10.8525C4.18504 10.8675 4.30504 10.875 4.41754 10.875C5.25005 10.875 6.07506 10.5675 6.72757 10.035C7.35007 10.5675 8.15258 10.875 9.00759 10.875C9.8626 10.875 10.6576 10.5825 11.2801 10.0425C11.9251 10.5675 12.7351 10.875 13.5601 10.875C13.6876 10.875 13.8226 10.8675 13.9426 10.8525C14.0326 10.845 14.1076 10.8375 14.1901 10.8225C14.4151 10.7925 14.6177 10.7325 14.8202 10.665C15.2852 10.5075 15.7727 10.8525 15.7727 11.34V13.005C15.7727 14.9926 14.1601 16.6126 12.1651 16.6126H5.85006Z" fill="var(--fill-0, white)"/>
<path fill-rule="evenodd" clip-rule="evenodd" d="M12.8773 1.38723C14.9848 1.38723 15.9748 2.27275 16.2748 4.44778L16.4847 6.44289C16.5597 7.19281 16.365 7.92014 15.9301 8.49758C15.3901 9.24754 14.5277 9.67528 13.5678 9.67532C12.6752 9.67532 11.8122 9.23255 11.2572 8.52004C10.7622 9.23996 9.94497 9.67532 9.01502 9.67532C8.08504 9.67529 7.25251 9.21726 6.76502 8.48977C6.21011 9.21716 5.34034 9.67516 4.43299 9.67532C3.49548 9.67532 2.6553 9.26966 2.10779 8.55715C1.65037 7.97217 1.44003 7.22218 1.51502 6.44973L1.71033 4.47024C2.01782 2.27286 2.99989 1.38735 5.11463 1.38723H12.8773ZM9.00037 2.99953C8.82015 2.99911 8.67392 3.14542 8.67322 3.32571C8.67105 3.92641 8.5134 4.30431 8.27186 4.53762C8.02768 4.77343 7.64264 4.91422 7.07264 4.92239C6.89323 4.92493 6.74931 5.07211 6.75037 5.25149C6.75165 5.43094 6.89712 5.57653 7.07654 5.57668C7.70991 5.57668 8.08614 5.74387 8.31092 5.98684C8.54068 6.23531 8.66825 6.62196 8.67322 7.17532C8.67483 7.35188 8.81607 7.49474 8.99256 7.49856C9.16912 7.50219 9.31657 7.36533 9.32557 7.18899C9.35491 6.60421 9.51088 6.21151 9.75233 5.96535C9.98976 5.72331 10.3582 5.57455 10.9213 5.57668C11.1006 5.57731 11.2471 5.43273 11.2494 5.25344C11.2515 5.07422 11.1083 4.9272 10.9291 4.92336C10.3115 4.9101 9.92624 4.74594 9.69275 4.50344C9.45863 4.26016 9.32439 3.88227 9.32654 3.32766C9.32704 3.14735 9.18072 3.00021 9.00037 2.99953Z" fill="var(--fill-0, white)"/>
</g>
</svg>
