<svg preserveAspectRatio="none" width="100%" height="100%" overflow="visible" style="display: block;" viewBox="0 0 12.0024 12" fill="none" xmlns="http://www.w3.org/2000/svg">
<path id="Shape" fill-rule="evenodd" clip-rule="evenodd" d="M4.9612 1.63636C3.12495 1.63636 1.63636 3.12495 1.63636 4.9612C1.63636 6.79746 3.12495 8.28604 4.9612 8.28604C5.88004 8.28604 6.71052 7.9144 7.31317 7.31127C7.91519 6.70877 8.28604 5.87908 8.28604 4.9612C8.28604 3.12495 6.79746 1.63636 4.9612 1.63636ZM0 4.9612C0 2.22121 2.22121 0 4.9612 0C7.7012 0 9.92241 2.22121 9.92241 4.9612C9.92241 6.03488 9.58068 7.02969 9.00101 7.84155L11.7627 10.6033C12.0822 10.9228 12.0822 11.4408 11.7627 11.7604C11.4432 12.0799 10.9252 12.0799 10.6056 11.7604L7.84432 8.99903C7.03196 9.5799 6.0361 9.92241 4.9612 9.92241C2.22121 9.92241 0 7.7012 0 4.9612Z" fill="var(--fill-0, white)"/>
</svg>
