<svg preserveAspectRatio="none" width="100%" height="100%" overflow="visible" style="display: block;" viewBox="0 0 15.973 15.9668" fill="none" xmlns="http://www.w3.org/2000/svg">
<g id="Vector">
<path d="M6.25617 15.3992C6.51462 14.4487 6.64743 13.4512 6.47636 12.473C6.46161 12.3887 6.4062 12.3368 6.32199 12.3524C6.15432 12.3834 5.87897 12.4493 5.81006 12.3771L3.71079 10.2631C3.61836 10.17 3.57222 10.0406 3.58493 9.91005C3.6068 9.68549 3.45556 9.47868 3.23156 9.45166C2.85 9.40564 2.46586 9.40324 2.08345 9.43396C1.36041 9.49204 0.705778 8.89783 0.971409 8.22286C1.19746 7.64845 1.4986 7.10301 1.86689 6.62339C2.84072 5.35572 4.30943 4.58098 5.84826 4.20983C6.06622 4.15726 6.26402 4.04113 6.41424 3.8747C8.72305 1.31666 12.1544 -0.24211 15.6364 0.0308632C15.8056 0.0441334 15.9183 0.14003 15.9371 0.308783C15.9485 0.411493 15.9576 0.513733 15.9596 0.547618C16.1339 3.96583 14.5926 7.29342 12.088 9.55168C11.924 9.69958 11.8085 9.89369 11.7558 10.1082C11.4979 11.1573 11.0753 12.1701 10.4131 13.0279C9.40873 14.325 7.87074 15.147 6.25617 15.3992ZM12.7731 5.02C12.7731 4.01112 11.9556 3.19366 10.9468 3.19366C9.93789 3.19366 9.12043 4.01112 9.12043 5.02C9.12043 6.02887 9.93789 6.84633 10.9468 6.84633C11.9556 6.84633 12.7731 6.02887 12.7731 5.02Z" fill="var(--fill-0, white)"/>
<path d="M1.90689 13.145C1.82169 13.681 2.28567 14.1431 2.82182 14.0586C3.13795 14.0088 3.44574 13.9211 3.72484 13.7718C3.91459 13.6702 4.0707 13.6917 4.05353 13.9062C4.03101 14.3026 3.78555 14.7349 3.52658 15.0232C2.93487 15.6856 1.91971 15.8981 0.972261 15.9646C0.421331 16.0032 -0.0364174 15.5454 0.00228765 14.9945C0.0688679 14.0468 0.281491 13.0284 0.943586 12.4402C1.23184 12.1835 1.67097 11.938 2.06056 11.9132C2.27505 11.8961 2.29641 12.0521 2.19482 12.2418C2.04581 12.5201 1.95721 12.8284 1.90689 13.145Z" fill="var(--fill-0, white)"/>
</g>
</svg>
