<svg preserveAspectRatio="none" width="100%" height="100%" overflow="visible" style="display: block;" viewBox="0 0 14 14" fill="none" xmlns="http://www.w3.org/2000/svg">
<path id="Vector" d="M5.00359 0L4.39148 4.90983H5.73498L7.27623 0.285231L5.00359 0ZM7.88206 0.252417L6.33139 4.90983L11.0305 4.91298L12.1072 1.67542L7.88206 0.252417ZM4.36323 0.588132L2.10628 0.835501L2.54888 4.90983H3.82646L4.36323 0.588132ZM0.721973 3.96326C0.360987 3.96326 0.11991 4.24092 0.0543049 4.50596C0.0216592 4.63848 0.0401793 4.74576 0.0772197 4.80571C0.113946 4.8625 0.164798 4.90983 0.345291 4.90983H1.98072L1.87713 3.96326H0.721973ZM11.9408 3.96326L11.6269 4.90983H13.1179C13.0363 4.75207 13.0018 4.58484 13.0238 4.41761C13.0457 4.25354 13.1085 4.10525 13.1901 3.96326H11.9408ZM0 5.47777V13.268C0 13.4289 0.0875784 13.6182 0.231345 13.7634C0.375426 13.9085 0.565022 13.9968 0.721973 13.9968L12.7758 14C12.9327 14 13.1211 13.9117 13.2655 13.7665C13.4099 13.6214 13.4978 13.4321 13.4978 13.2711V11.0309H10.7668C9.38565 11.0309 9.38565 8.44367 10.7668 8.44367H13.4978V5.48092L0 5.47777ZM10.7668 9.01161C10.139 9.01161 10.139 10.463 10.7668 10.463H11.4668C11.1843 10.3431 10.9865 10.0623 10.9865 9.73731C10.9865 9.41232 11.1843 9.1315 11.4668 9.01161H10.7668ZM12.0758 9.01161C12.3583 9.1315 12.5561 9.41232 12.5561 9.73731C12.5561 10.0623 12.3583 10.3431 12.0758 10.463H14V9.01161H12.0758ZM11.7713 9.51644C11.6457 9.51644 11.5516 9.6111 11.5516 9.73731C11.5516 9.86351 11.6457 9.95817 11.7713 9.95817C11.8969 9.95817 11.991 9.86351 11.991 9.73731C11.991 9.6111 11.8969 9.51644 11.7713 9.51644Z" fill="var(--fill-0, white)"/>
</svg>
