<svg preserveAspectRatio="none" width="100%" height="100%" overflow="visible" style="display: block;" viewBox="0 0 15 15.9995" fill="none" xmlns="http://www.w3.org/2000/svg">
<path id="Subtract" d="M6.29883 0.327004C7.03741 -0.109053 7.96157 -0.10895 8.7002 0.327004L9.23438 0.642434C10.5302 1.40747 11.9853 1.8763 13.4912 2.01548L13.8281 2.04673C14.4924 2.10809 15 2.65527 15 3.30943V4.97642C15 7.79462 13.8331 10.4922 11.7666 12.451L8.39844 15.6434C7.89727 16.1183 7.10273 16.1183 6.60156 15.6434L3.2334 12.451C1.16695 10.4922 0 7.79462 0 4.97642V3.30943C0 2.65527 0.507643 2.10809 1.17188 2.04673L1.50879 2.01548C3.01469 1.8763 4.46983 1.40747 5.76562 0.642434L6.29883 0.327004ZM7.50195 3.99986C7.22122 3.99881 6.9923 4.22595 6.99121 4.50669C6.98778 5.44115 6.74394 6.02947 6.36816 6.39243C5.98815 6.75945 5.38824 6.97847 4.50098 6.99107C4.22173 6.99513 3.99802 7.22447 4 7.50376C4.00223 7.7829 4.22958 8.00767 4.50879 8.00767C5.49386 8.00774 6.07903 8.26843 6.42871 8.64634C6.78619 9.03293 6.98348 9.63499 6.99121 10.4959C6.99372 10.7707 7.21455 10.9941 7.48926 10.9999C7.76412 11.0055 7.99404 10.791 8.00781 10.5165C8.0535 9.60679 8.29529 8.99608 8.6709 8.61314C9.04026 8.23661 9.61352 8.00443 10.4893 8.00767C10.7683 8.00872 10.9965 7.78472 11 7.50572C11.0033 7.22702 10.7816 6.99726 10.5029 6.99107C9.54172 6.9705 8.94146 6.71706 8.57812 6.3397C8.21369 5.96119 8.00543 5.37274 8.00879 4.50962C8.00965 4.22903 7.78258 4.00093 7.50195 3.99986Z" fill="var(--fill-0, white)"/>
</svg>
