<svg preserveAspectRatio="none" width="100%" height="100%" overflow="visible" style="display: block;" viewBox="0 0 18 18" fill="none" xmlns="http://www.w3.org/2000/svg">
<g id="Shape">
<path fill-rule="evenodd" clip-rule="evenodd" d="M9 16.2C12.9764 16.2 16.2 12.9764 16.2 9C16.2 5.02355 12.9764 1.8 9 1.8C5.02355 1.8 1.8 5.02355 1.8 9C1.8 12.9764 5.02355 16.2 9 16.2ZM9 18C13.9706 18 18 13.9706 18 9C18 4.02944 13.9706 0 9 0C4.02944 0 0 4.02944 0 9C0 13.9706 4.02944 18 9 18Z" fill="white"/>
<path d="M9.9 13.5C9.9 13.9971 9.49706 14.4 9 14.4C8.50294 14.4 8.1 13.9971 8.1 13.5C8.1 13.0029 8.50294 12.6 9 12.6C9.49706 12.6 9.9 13.0029 9.9 13.5Z" fill="var(--fill-0, white)"/>
<path fill-rule="evenodd" clip-rule="evenodd" d="M7.19998 7.20629C7.19999 7.20207 7.20002 7.20063 7.19998 7.20629ZM9.90439 10.501C10.2943 10.212 10.7715 10.0205 11.2025 9.80498C12.6692 9.07164 12.8525 7.36138 12.4413 6.12789C12.0076 4.82668 10.8144 3.6 9 3.6C8.16751 3.6 7.48332 3.81071 6.93983 4.17303C6.40198 4.5316 6.05465 5.00324 5.83252 5.44751C5.55942 5.9937 5.42549 6.59269 5.4 7.2C5.4 7.69706 5.80294 8.1 6.3 8.1C6.79496 8.1 7.1966 7.70045 7.19998 7.20629C7.20889 6.88024 7.29733 6.54281 7.44249 6.25249C7.74704 5.64339 8.33929 5.4 9 5.4C9.88558 5.4 10.4924 5.97332 10.7337 6.6971C10.9975 7.48862 10.7308 8.02836 10.3975 8.19502C10.0372 8.37515 9.67451 8.55196 9.3223 8.74763C9.05713 8.89495 8.7949 9.05731 8.5886 9.2636C8.05874 9.79347 8.1 10.423 8.1 10.8C8.1 11.2971 8.50294 11.7 9 11.7C9.49706 11.7 9.9 11.2971 9.9 10.8C9.9 10.6377 9.90155 10.5512 9.90439 10.501Z" fill="white"/>
</g>
</svg>
