<svg preserveAspectRatio="none" width="100%" height="100%" overflow="visible" style="display: block;" viewBox="0 0 13 16" fill="none" xmlns="http://www.w3.org/2000/svg">
<path id="Shape" fill-rule="evenodd" clip-rule="evenodd" d="M10.5625 5.6V9.04C11.4563 9.52 13 10.64 13 12.8C13 13.2 12.5938 13.6 12.1875 13.6H8.9375C8.9375 14.9255 7.84619 16 6.5 16C5.15381 16 4.0625 14.9255 4.0625 13.6H0.8125C0.40625 13.6 0 13.2 0 12.8C0 10.64 1.54375 9.52 2.4375 9.12V5.6C2.4375 3.68 3.81875 2.08 5.6875 1.68V0.8C5.6875 0.4 6.09375 0 6.5 0C6.90625 0 7.3125 0.4 7.3125 0.8V1.68C9.18125 2.08 10.5625 3.68 10.5625 5.6ZM5.6875 13.6C5.6875 14.0418 6.05127 14.4 6.5 14.4C6.94873 14.4 7.3125 14.0418 7.3125 13.6H5.6875Z" fill="var(--fill-0, white)"/>
</svg>
