<svg preserveAspectRatio="none" width="100%" height="100%" overflow="visible" style="display: block;" viewBox="0 0 16 16" fill="none" xmlns="http://www.w3.org/2000/svg">
<g id="Union">
<path d="M7.51074 4.44434C10.3996 4.44434 11.5557 5.60037 11.5557 8.48926V11.9551C11.5557 14.844 10.3996 16 7.51074 16H4.04492C1.15603 16 0 14.844 0 11.9551V8.48926C0 5.60037 1.15603 4.44434 4.04492 4.44434H7.51074Z" fill="var(--fill-0, white)"/>
<path d="M12.2637 0C14.9322 0 16 1.06776 16 3.73633V6.93848C16 9.19413 15.2317 10.3002 13.3877 10.5889C12.8375 10.6749 12.3779 10.2112 12.3779 9.6543V8.31055C12.3779 5.10841 10.8916 3.62212 7.68945 3.62207H6.3457C5.78879 3.62207 5.32505 3.16252 5.41113 2.6123C5.69975 0.768252 6.80587 4.2579e-05 9.06152 0H12.2637Z" fill="var(--fill-0, white)"/>
</g>
</svg>
