<svg preserveAspectRatio="none" width="100%" height="100%" overflow="visible" style="display: block;" viewBox="0 0 12 15" fill="none" xmlns="http://www.w3.org/2000/svg">
<g id="Shape">
<path d="M9 6.29493C9 5.87072 9.33579 5.52683 9.75 5.52683H11.25C11.6642 5.52683 12 5.87072 12 6.29493V14.2319C12 14.6561 11.6642 15 11.25 15H9.75C9.33579 15 9 14.6561 9 14.2319V6.29493Z" fill="var(--fill-0, white)"/>
<path d="M5.25 7.95913C4.83579 7.95913 4.5 8.30302 4.5 8.72723V14.2319C4.5 14.6561 4.83579 15 5.25 15H6.75C7.16421 15 7.5 14.6561 7.5 14.2319V8.72723C7.5 8.30302 7.16421 7.95913 6.75 7.95913H5.25Z" fill="var(--fill-0, white)"/>
<path d="M0.75 10.3914C0.335786 10.3914 0 10.7353 0 11.1595V14.2319C0 14.6561 0.335786 15 0.75 15H2.25C2.66421 15 3 14.6561 3 14.2319V11.1595C3 10.7353 2.66421 10.3914 2.25 10.3914H0.75Z" fill="var(--fill-0, white)"/>
<path fill-rule="evenodd" clip-rule="evenodd" d="M7.37189 0.640079C7.37189 0.286573 7.65171 0 7.99689 0H11.2674C11.6126 0 11.8924 0.286573 11.8924 0.640079V3.59155C11.8924 3.94506 11.6126 4.23163 11.2674 4.23163C10.9222 4.23163 10.6424 3.94506 10.6424 3.59155V2.09647L5.8648 6.5877C5.74223 6.70293 5.57985 6.76334 5.41364 6.75557C5.24744 6.7478 5.09111 6.67247 4.97931 6.54628L3.70052 5.103L1.18144 7.76455C0.941197 8.01838 0.545517 8.0247 0.297665 7.77866C0.0498133 7.53262 0.043646 7.12739 0.28389 6.87356L3.26678 3.72197C3.38699 3.59496 3.55315 3.52456 3.72584 3.52747C3.89853 3.53038 4.06234 3.60635 4.17841 3.73734L5.4826 5.20929L9.66224 1.28016H7.99689C7.65171 1.28016 7.37189 0.993584 7.37189 0.640079Z" fill="var(--fill-0, white)"/>
</g>
</svg>
