<svg preserveAspectRatio="none" width="100%" height="100%" overflow="visible" style="display: block;" viewBox="0 0 15 12" fill="none" xmlns="http://www.w3.org/2000/svg">
<path id="Shape" d="M14.878 6.26561C14.9523 6.20137 14.9964 6.1096 14.9998 6.0121C15.0032 5.91459 14.9656 5.82006 14.8959 5.75093L9.20466 0.103889C9.10263 0.0026531 8.94891 -0.0278046 8.81527 0.0267402C8.68164 0.081285 8.59447 0.21007 8.59447 0.352951L8.59447 3.18172C6.15776 3.25374 4.04918 4.06422 2.52621 5.47805C0.926962 6.9627 0 9.08843 0 11.647C0 11.7969 0.0958015 11.9305 0.238926 11.9801C0.38205 12.0297 0.541274 11.9846 0.636024 11.8675C1.33766 11.0008 2.20834 10.0698 3.49895 9.35165C4.72294 8.67061 6.34537 8.16982 8.59187 8.12147L8.57144 10.9386C8.57043 11.0776 8.65201 11.2042 8.77983 11.262C8.90765 11.3199 9.05794 11.2983 9.16375 11.2068L14.878 6.26561Z" fill="var(--fill-0, white)"/>
</svg>
