<svg preserveAspectRatio="none" width="100%" height="100%" overflow="visible" style="display: block;" viewBox="0 0 16 16" fill="none" xmlns="http://www.w3.org/2000/svg">
<path id="Shape" fill-rule="evenodd" clip-rule="evenodd" d="M2.7599 0.00200897C1.21278 -0.0574957 -0.0574957 1.21278 0.00200898 2.7599L0.202467 7.97179C0.228199 8.64083 0.505499 9.2755 0.978929 9.74893L6.45157 15.2216C7.48948 16.2595 9.17225 16.2595 10.2101 15.2216L15.2216 10.2101C16.2595 9.17224 16.2595 7.48947 15.2216 6.45157L9.74893 0.978928C9.2755 0.505497 8.64082 0.228198 7.97179 0.202466L2.7599 0.00200897ZM6.66691 6.66647C7.35884 5.97454 7.35884 4.85269 6.66691 4.16076C5.97497 3.46883 4.85313 3.46883 4.16119 4.16076C3.46926 4.85269 3.46926 5.97454 4.16119 6.66647C4.85313 7.35841 5.97497 7.35841 6.66691 6.66647Z" fill="var(--fill-0, white)"/>
</svg>
