<svg preserveAspectRatio="none" width="100%" height="100%" overflow="visible" style="display: block;" viewBox="0 0 16 16" fill="none" xmlns="http://www.w3.org/2000/svg">
<path id="Subtract" d="M8 0C12.4334 0 16 3.56664 16 8C16 12.4334 12.4334 16 8 16C3.56664 16 0 12.4334 0 8C2.03803e-07 3.56664 3.56664 2.03796e-07 8 0ZM9.83301 2.36719C9.69972 2.30069 9.5665 2.36674 9.5332 2.5C9.49987 2.53335 9.5 2.56709 9.5 2.63379V3.10059C9.50022 3.2338 9.60031 3.36695 9.7002 3.43359C12.3001 4.36694 13.6337 7.26732 12.667 9.83398C12.167 11.2337 11.0666 12.2998 9.7002 12.7998C9.56684 12.8664 9.5 12.9671 9.5 13.1338V13.6006C9.50015 13.7337 9.56699 13.8339 9.7002 13.8672C9.73346 13.8672 9.79956 13.8668 9.83301 13.834C12.9996 12.834 14.7334 9.46644 13.7334 6.2998C13.1333 4.39995 11.6662 2.96716 9.83301 2.36719ZM6.2998 2.33398C6.26637 2.33398 6.20027 2.33399 6.16699 2.36719C3.00035 3.36719 1.2666 6.73375 2.2666 9.90039C2.86664 11.7669 4.30042 13.1998 6.16699 13.7998C6.30025 13.8663 6.43345 13.8002 6.4668 13.667C6.50016 13.6337 6.5 13.5998 6.5 13.5332V13.0664C6.49975 12.9664 6.39968 12.8332 6.2998 12.7666C3.70014 11.8333 2.36667 8.9337 3.33301 6.36719C3.83297 4.96729 4.9333 3.90044 6.2998 3.40039C6.43316 3.33375 6.5 3.23313 6.5 3.06641V2.60059C6.5 2.46723 6.43316 2.36726 6.2998 2.33398ZM7.7334 4.06738C7.60004 4.06738 7.50016 4.16726 7.4668 4.33398V5.10059C6.46688 5.23393 5.83312 5.90014 5.83301 6.7334C5.83301 7.8334 6.50039 8.26687 7.90039 8.43359C8.83349 8.60022 9.13379 8.80069 9.13379 9.33398C9.13357 9.86714 8.66634 10.2334 8.0332 10.2334C7.16679 10.2333 6.86665 9.86701 6.7666 9.36719C6.73332 9.23391 6.6332 9.16699 6.5332 9.16699H5.9668C5.83352 9.16699 5.7334 9.26703 5.7334 9.40039V9.43359C5.86667 10.2668 6.40007 10.8665 7.5 11.0332V11.834C7.50018 11.9671 7.60012 12.0673 7.7666 12.1006H8.2666C8.39986 12.1006 8.49976 12.0004 8.5332 11.834V11.0332C9.5332 10.8665 10.2002 10.1666 10.2002 9.2666C10.2001 8.10019 9.49949 7.69983 8.09961 7.5332C7.10009 7.39983 6.90042 7.13358 6.90039 6.66699C6.90039 6.20027 7.23375 5.90039 7.90039 5.90039C8.50017 5.90047 8.83339 6.10068 9 6.60059C9.03346 6.70043 9.13349 6.7666 9.2334 6.7666H9.7666C9.89996 6.7666 10 6.66648 10 6.5332V6.5C9.86655 5.76676 9.26655 5.20042 8.5 5.13379V4.33398C8.5 4.20065 8.39998 4.10076 8.2334 4.06738H7.7334Z" fill="var(--fill-0, white)"/>
</svg>
