<svg preserveAspectRatio="none" width="100%" height="100%" overflow="visible" style="display: block;" viewBox="0 0 17 16" fill="none" xmlns="http://www.w3.org/2000/svg">
<path id="Vector" d="M4.51325 0C4.4359 0 3.92804 1.35979 3.86549 1.40527C3.80294 1.45074 2.35359 1.5139 2.32968 1.58749C2.3058 1.66108 3.44121 2.56458 3.46512 2.63817C3.48903 2.71177 3.10111 4.11057 3.1637 4.15605C3.22625 4.20149 4.43594 3.4002 4.51325 3.4002C4.59059 3.4002 5.80025 4.20152 5.86279 4.15601C5.92534 4.11057 5.53746 2.71177 5.56137 2.63817C5.58525 2.56458 6.72069 1.66108 6.69681 1.58749C6.6729 1.5139 5.22355 1.45074 5.16097 1.40527C5.09842 1.35982 4.59059 0 4.51325 0ZM12.4868 0C12.4094 0 11.9016 1.35979 11.839 1.40527C11.7765 1.45074 10.3271 1.5139 10.3032 1.58749C10.2793 1.66108 11.4147 2.56458 11.4387 2.63817C11.4626 2.71177 11.0747 4.11057 11.1372 4.15605C11.1998 4.20149 12.4095 3.4002 12.4868 3.4002C12.5641 3.4002 13.7738 4.20152 13.8364 4.15601C13.8989 4.11057 13.511 2.71177 13.5349 2.63817C13.5588 2.56458 14.6942 1.66108 14.6704 1.58749C14.6464 1.5139 13.1971 1.45074 13.1345 1.40527C13.072 1.35982 12.5641 0 12.4868 0ZM8.50002 0.125034C8.24741 0.125034 6.58832 4.56701 6.38393 4.71558C6.17958 4.86415 1.445 5.07044 1.36691 5.31085C1.28886 5.55127 4.99805 8.50281 5.07614 8.74322C5.15419 8.9836 3.88717 13.5531 4.09152 13.7017C4.29587 13.8503 8.24741 11.2324 8.50002 11.2324C8.75262 11.2324 12.7042 13.8503 12.9085 13.7017C13.1129 13.5531 11.8459 8.9836 11.9239 8.74322C12.002 8.50281 15.7112 5.55127 15.6331 5.31085C15.5551 5.07044 10.8205 4.86415 10.6161 4.71558C10.4117 4.56701 8.75262 0.125034 8.50002 0.125034ZM2.18397 7.33948C2.10663 7.33948 1.59876 8.69923 1.53621 8.74475C1.47367 8.79019 0.0242835 8.85338 0.00037131 8.92694C-0.0235054 9.00053 1.112 9.90403 1.13592 9.97762C1.15979 10.0512 0.771912 11.45 0.834495 11.4955C0.897043 11.541 2.10663 10.7396 2.18397 10.7396C2.26131 10.7396 3.47094 11.541 3.53352 11.4955C3.59607 11.45 3.20819 10.0512 3.2321 9.97762C3.25598 9.90403 4.39148 9.00053 4.36757 8.92694C4.3437 8.85334 2.89435 8.79022 2.83177 8.74475C2.76922 8.69923 2.26131 7.33948 2.18397 7.33948ZM14.8161 7.33948C14.7387 7.33948 14.2308 8.69923 14.1682 8.74475C14.1057 8.79019 12.6563 8.85338 12.6325 8.92694C12.6085 9.00053 13.7441 9.90403 13.7679 9.97762C13.7918 10.0512 13.4039 11.45 13.4665 11.4955C13.5291 11.541 14.7388 10.7396 14.8161 10.7396C14.8934 10.7396 16.103 11.541 16.1655 11.4955C16.2281 11.45 15.8402 10.0512 15.8641 9.97762C15.888 9.90403 17.0235 9.00053 16.9996 8.92694C16.9758 8.85334 15.5264 8.79022 15.4638 8.74475C15.4013 8.69923 14.8934 7.33948 14.8161 7.33948ZM8.50002 11.8421C8.42267 11.8421 7.91484 13.2018 7.85226 13.2473C7.78971 13.2928 6.34036 13.356 6.31645 13.4295C6.29257 13.5031 7.42798 14.4067 7.45189 14.4803C7.4758 14.5539 7.08789 15.9527 7.15047 15.9981C7.21302 16.0436 8.42271 15.2422 8.50002 15.2422C8.57736 15.2422 9.78702 16.0436 9.8496 15.9981C9.91211 15.9527 9.52427 14.5539 9.54814 14.4803C9.57202 14.4067 10.7075 13.5031 10.6836 13.4295C10.6597 13.356 9.21032 13.2928 9.14774 13.2473C9.08519 13.2018 8.57736 11.8421 8.50002 11.8421Z" fill="var(--fill-0, white)"/>
</svg>
