<svg preserveAspectRatio="none" width="100%" height="100%" overflow="visible" style="display: block;" viewBox="0 0 10 16" fill="none" xmlns="http://www.w3.org/2000/svg">
<path id="Vector" d="M0.204601 3.36678e-05C-0.168375 1.56645 -0.00477943 2.9172 0.47982 4.07608C1.63434 5.27205 3.20144 6.10962 4.82902 6.91938C4.27785 6.42328 3.75537 5.93257 3.30152 5.43084H5.95617C6.14972 5.22209 6.32984 5.01229 6.49526 4.80135H2.77612C2.59612 4.56436 2.43412 4.32368 2.29389 4.07709C2.21979 3.94683 2.151 3.81501 2.08804 3.68128H7.20496C7.30432 3.47623 7.3881 3.26795 7.45517 3.05175H1.84234C1.71667 2.64212 1.6485 2.20531 1.65243 1.72326H7.63031C7.6239 1.52289 7.60454 1.31336 7.57004 1.09265H1.69676C1.74051 0.752654 1.8165 0.389751 1.93103 0L0.204601 3.36678e-05ZM8.06701 3.36678e-05C8.43216 1.2409 8.41698 2.20447 8.1569 3.05178H8.15123C8.03422 3.50116 7.85432 3.91829 7.62805 4.31603C7.05636 5.32099 6.16515 6.2091 5.18616 7.09623C5.6502 7.3255 6.11667 7.5546 6.57827 7.79101C7.55111 6.90954 8.49993 5.96572 9.16341 4.79923C9.90816 3.48984 10.2491 1.90405 9.79577 0L8.06701 3.36678e-05ZM3.37206 8.54996C2.63185 9.26452 1.9362 10.0438 1.40906 10.9649C0.632897 12.3211 0.276808 13.9953 0.701611 15.9999H2.36213C2.17885 15.2538 2.12629 14.5566 2.17906 13.9114C2.19573 13.6598 2.22929 13.4194 2.27915 13.1882H2.28479C2.33131 12.9714 2.39019 12.7616 2.45996 12.5586C2.46083 12.5562 2.46134 12.5537 2.46222 12.5513C2.57231 12.2323 2.70956 11.9301 2.86941 11.646C3.41387 10.6782 4.17453 9.91652 4.92572 9.22686C4.4123 8.99981 3.89043 8.77795 3.37209 8.54996H3.37206ZM5.10428 9.3069C5.62971 9.79703 6.11897 10.2904 6.53045 10.8081H4.2808C4.10618 11.0096 3.94098 11.2189 3.78838 11.4376H6.98204C7.03463 11.5201 7.08511 11.604 7.13326 11.6881C7.29296 11.9673 7.42977 12.2557 7.53925 12.5587H3.17647C3.09698 12.7601 3.03063 12.9703 2.97739 13.1883H7.72016C7.80853 13.5983 7.84846 14.0375 7.82706 14.5167H2.83763C2.84262 14.7205 2.85874 14.9304 2.88768 15.1463H7.76686C7.72784 15.4178 7.67041 15.7019 7.59398 16H9.29774C9.6447 14.3622 9.47011 12.9453 8.97128 11.7418C7.9361 10.669 6.55917 9.95745 5.10431 9.30696L5.10428 9.3069Z" fill="var(--fill-0, white)"/>
</svg>
