<svg preserveAspectRatio="none" width="100%" height="100%" overflow="visible" style="display: block;" viewBox="0 0 16 16" fill="none" xmlns="http://www.w3.org/2000/svg">
<g id="Vector">
<path d="M8.59807 6.54609C10.287 6.42207 12.1021 6.62465 13.8039 6.53769C14.8929 6.5955 15.7178 7.28872 15.933 8.35845C15.9112 10.1456 16.067 12.0509 15.9651 13.8306C15.9043 14.8934 15.1911 15.7324 14.1421 15.933C12.3528 15.9113 10.4458 16.0669 8.66384 15.9651C7.60102 15.9044 6.75829 15.1929 6.55947 14.1444C6.57579 12.3612 6.43237 10.4737 6.52733 8.69642C6.59013 7.52046 7.41161 6.63305 8.59807 6.54609Z" fill="var(--fill-0, white)"/>
<path d="M4.98874 14.4008C4.9378 14.4517 4.81366 14.51 4.73898 14.509C3.85272 14.4571 2.89722 14.5737 2.01986 14.509C1.03865 14.4364 0.199372 13.6518 0.0386381 12.6883C-0.0132912 9.22708 -0.0123021 5.75009 0.0381435 2.28841C0.171181 1.5275 0.872474 0.836746 1.65042 0.765595C2.3349 0.703338 2.15043 1.0586 2.1801 1.54331C2.24588 2.62539 3.06587 3.56122 4.16974 3.65164C5.21525 3.73712 6.37203 3.58889 7.42941 3.65164C8.41607 3.58049 9.32458 2.72816 9.41806 1.73947C9.4413 1.49094 9.3137 0.852557 9.63418 0.77103C9.95466 0.689503 10.4863 0.882203 10.7499 1.05119C11.2875 1.39607 11.5793 1.97071 11.6179 2.60217C11.6535 3.18323 11.6668 4.12845 11.6179 4.70111C11.5981 4.93433 11.4745 5.08256 11.2336 5.10726C10.1822 5.213 8.9413 4.95755 7.90716 5.18928C6.38539 5.53071 5.25432 6.82871 5.09606 8.37722V14.1019C5.08814 14.1982 5.05797 14.3316 4.98874 14.4008Z" fill="var(--fill-0, white)"/>
<path d="M4.646 0.0323485C5.4195 -0.0506605 6.36511 0.0511243 7.14652 0.0610064C8.31369 0.326339 8.20637 2.04581 7.08173 2.19404C6.32505 2.29385 5.36609 2.12289 4.58814 2.19701C3.30177 1.99591 3.3359 0.173167 4.646 0.0323485Z" fill="var(--fill-0, white)"/>
</g>
</svg>
