<svg preserveAspectRatio="none" width="100%" height="100%" overflow="visible" style="display: block;" viewBox="0 0 13 16" fill="none" xmlns="http://www.w3.org/2000/svg">
<path id="Vector" d="M11.0447 5.85848C12.0208 5.76997 12.8844 6.50069 12.9966 7.51337L13 14.3135C12.8938 15.2328 12.2106 15.9315 11.3184 16H1.72933C0.829408 15.9311 0.133798 15.2132 0.0459906 14.2819C0.158642 12.1036 -0.10007 9.76823 0.0459906 7.60811C0.118379 6.53627 0.978038 5.78154 2.00346 5.85848C1.97219 4.70303 1.95892 3.66811 2.45621 2.61006C4.10271 -0.891862 8.99511 -0.863398 10.6116 2.65631C11.0926 3.70324 11.0734 4.71993 11.0447 5.85848ZM9.56993 5.85803C9.59348 4.75106 9.63932 3.77663 8.98697 2.84533C7.76023 1.09481 5.29219 1.10238 4.06116 2.84533C3.4071 3.77173 3.45593 4.75551 3.47821 5.85803H9.56993Z" fill="var(--fill-0, white)"/>
</svg>
