<svg preserveAspectRatio="none" width="100%" height="100%" overflow="visible" style="display: block;" viewBox="0 0 12 12" fill="none" xmlns="http://www.w3.org/2000/svg">
<g id="Vector">
<path d="M3.90004 11.075C2.57502 11.075 1.49501 10 1.49501 8.67002V7.57001C1.49501 7.235 1.82501 7.01 2.14002 7.12C2.27002 7.165 2.40002 7.195 2.53502 7.215C2.59502 7.225 2.65502 7.235 2.71502 7.235C2.79002 7.245 2.87003 7.25 2.94503 7.25C3.50003 7.25 4.05004 7.045 4.48504 6.69C4.90005 7.045 5.43505 7.25 6.00506 7.25C6.57507 7.25 7.10507 7.055 7.52008 6.695C7.95008 7.045 8.49009 7.25 9.04009 7.25C9.12509 7.25 9.2151 7.245 9.2951 7.235C9.3551 7.23 9.4051 7.225 9.4601 7.215C9.6101 7.195 9.7451 7.155 9.8801 7.11C10.1901 7.005 10.5151 7.235 10.5151 7.56001V8.67002C10.5151 9.99503 9.4401 11.075 8.11008 11.075H3.90004Z" fill="var(--fill-0, white)"/>
<path fill-rule="evenodd" clip-rule="evenodd" d="M8.58488 0.92482C9.9899 0.92482 10.6499 1.51517 10.8499 2.96518L10.9898 4.29526C11.0398 4.7952 10.91 5.2801 10.62 5.66505C10.26 6.16502 9.68514 6.45019 9.04517 6.45021C8.45016 6.45021 7.87481 6.15503 7.50481 5.68003C7.17479 6.15997 6.62998 6.45021 6.01001 6.45021C5.39003 6.4502 4.83501 6.14484 4.51001 5.65985C4.14007 6.14477 3.56022 6.45011 2.95533 6.45021C2.33032 6.45021 1.7702 6.17977 1.4052 5.70477C1.10024 5.31478 0.960017 4.81478 1.01001 4.29982L1.14022 2.98016C1.34521 1.51524 1.99993 0.924898 3.40975 0.92482H8.58488ZM6.00025 1.99969C5.8801 1.99941 5.78262 2.09695 5.78215 2.21714C5.7807 2.61761 5.6756 2.86954 5.51457 3.02508C5.35178 3.18229 5.09509 3.27615 4.71509 3.28159C4.59549 3.28329 4.49954 3.38141 4.50025 3.50099C4.5011 3.62063 4.59808 3.71769 4.7177 3.71779C5.13994 3.71779 5.39076 3.82925 5.54061 3.99123C5.69379 4.15687 5.77884 4.41464 5.78215 4.78354C5.78322 4.90125 5.87738 4.9965 5.99504 4.99904C6.11275 5.00146 6.21104 4.91022 6.21705 4.79266C6.2366 4.4028 6.34059 4.14101 6.50155 3.9769C6.65984 3.81554 6.9055 3.71637 7.28085 3.71779C7.40037 3.7182 7.49809 3.62182 7.4996 3.50229C7.50102 3.38282 7.40553 3.2848 7.28606 3.28224C6.87431 3.2734 6.61749 3.16396 6.46184 3.00229C6.30575 2.8401 6.21626 2.58818 6.2177 2.21844C6.21803 2.09823 6.12048 2.00014 6.00025 1.99969Z" fill="var(--fill-0, white)"/>
</g>
</svg>
