<svg preserveAspectRatio="none" width="100%" height="100%" overflow="visible" style="display: block;" viewBox="0 0 20 20" fill="none" xmlns="http://www.w3.org/2000/svg">
<path id="Vector" d="M12.8745 0L10.5375 2.33494L11.2276 3.0242L10.6857 3.56443L9.99979 2.87559L0 12.8745L1.92934 14.8051C3.13597 14.187 4.30957 14.3098 4.99968 14.9999C5.68979 15.69 5.81257 16.8628 5.19444 18.0694L7.12505 20L17.121 10.004L16.4351 9.31391L16.9771 8.77199L17.6672 9.45786L20 7.12505L18.0694 5.19444C16.8628 5.81257 15.69 5.68979 14.9999 4.99968C14.3098 4.30957 14.187 3.13597 14.8051 1.92934L12.8745 0ZM12.1887 3.97934L13.6239 5.41883L13.082 5.96075L11.6467 4.52126L12.1887 3.97934ZM9.99979 4.67368L15.3259 9.99979L8.56453 16.7654L3.2325 11.435L9.72883 4.94041L9.99979 4.67368ZM9.99979 5.74906L4.30957 11.435L8.56453 15.69L14.2505 9.99979L9.99979 5.74906ZM14.5807 6.37566L16.0202 7.81092L15.4783 8.35284L14.0388 6.91759L14.5807 6.37566Z" fill="var(--fill-0, white)"/>
</svg>
