<svg preserveAspectRatio="none" width="100%" height="100%" overflow="visible" style="display: block;" viewBox="0 0 16 13" fill="none" xmlns="http://www.w3.org/2000/svg">
<g id="Shape">
<path d="M0.78255 0.636682C1.20919 0.241197 1.77686 0 2.4 0H13.6C14.2231 0 14.7908 0.241196 15.2175 0.636681L8 5.5235L0.78255 0.636682Z" fill="var(--fill-0, white)"/>
<path d="M0.026002 2.07744C0.00887334 2.19494 0 2.31517 0 2.4375V10.5625C0 11.9087 1.07452 13 2.4 13H13.6C14.9255 13 16 11.9087 16 10.5625V2.4375C16 2.31517 15.9911 2.19494 15.974 2.07744L8.44376 7.17604C8.17504 7.35799 7.82496 7.35799 7.55624 7.17604L0.026002 2.07744Z" fill="var(--fill-0, white)"/>
</g>
</svg>
