<svg preserveAspectRatio="none" width="100%" height="100%" overflow="visible" style="display: block;" viewBox="0 0 12.1338 16" fill="none" xmlns="http://www.w3.org/2000/svg">
<path id="Exclude" d="M11.0723 0C11.6586 0 12.1338 0.627188 12.1338 1.40039V14.5996C12.1338 15.3728 11.6586 16 11.0723 16H1.0625C0.476132 16 0 15.3728 0 14.5996V1.40039C0 0.627188 0.476132 0 1.0625 0H11.0723ZM6.02637 3.14453C3.34679 3.14481 1.17339 5.31888 1.17285 7.99902C1.17285 10.6796 3.34645 12.8532 6.02637 12.8535C8.70637 12.8535 10.8818 10.6817 10.8818 7.99902C10.8813 5.31686 8.7079 3.14453 6.02637 3.14453ZM4.37891 8.51367C4.59818 9.21522 5.25183 9.72631 6.02637 9.72656C6.80109 9.72656 7.45562 9.21719 7.6748 8.51367H9.69238C9.43125 10.3173 7.87863 11.7061 6.00098 11.7061C4.12327 11.7058 2.57092 10.3186 2.31152 8.51367H4.37891ZM2.65723 10.04C2.68863 10.0909 2.72141 10.1411 2.75488 10.1904C2.78851 10.2396 2.82262 10.2884 2.8584 10.3359C2.89428 10.3837 2.93175 10.4305 2.96973 10.4766L3.08594 10.6113C2.92628 10.4347 2.782 10.2436 2.65625 10.04H2.65723ZM6.13184 7.30762H6.13281C6.3807 7.34519 6.58667 7.51398 6.67676 7.74121V7.74219C6.67803 7.74547 6.67986 7.74998 6.68066 7.75195L6.68164 7.75391L6.69824 7.80566C6.70703 7.83632 6.71391 7.86876 6.71875 7.90137L6.72754 8.00293C6.72711 8.0885 6.71078 8.17072 6.68359 8.24316L6.68262 8.24512L6.67969 8.25391C6.59043 8.4832 6.38338 8.65275 6.13379 8.69043C6.09928 8.69563 6.0639 8.69824 6.02832 8.69824C5.72852 8.69806 5.47206 8.5101 5.37305 8.24414L5.36328 8.21484L5.3623 8.21289V8.21191L5.3584 8.20117L5.35742 8.19629L5.35352 8.18359L5.35254 8.18066C5.35136 8.17616 5.35092 8.17327 5.35059 8.17188V8.1709L5.34961 8.16797V8.16699L5.34668 8.15527V8.15332L5.3457 8.15234L5.34375 8.13965L5.34277 8.13672V8.13574L5.34082 8.125L5.33984 8.12207V8.12109C5.33858 8.11361 5.33834 8.1123 5.33789 8.10938V8.10742L5.33496 8.09277V8.08691C5.33448 8.08315 5.33415 8.08055 5.33398 8.0791V8.07812L5.33301 8.06738L5.33203 8.06543V8.06055C5.33182 8.05878 5.33133 8.05573 5.33105 8.05176V8.0459L5.33008 8.03027C5.32965 8.02077 5.3291 8.01019 5.3291 8V7.95508C5.32929 7.95308 5.32983 7.94711 5.33008 7.94141L5.3291 7.94043L5.33008 7.9375C5.3301 7.93635 5.32998 7.9346 5.33008 7.93359C5.33032 7.93217 5.33095 7.92979 5.33105 7.92871V7.92383L5.33203 7.91992C5.33221 7.9184 5.33254 7.91582 5.33301 7.91211C5.33304 7.91092 5.33293 7.90885 5.33301 7.9082L5.33398 7.90527C5.33398 7.90409 5.33373 7.90211 5.33398 7.90039C5.33441 7.8984 5.33557 7.89521 5.33594 7.89258V7.88867C5.33638 7.88604 5.33682 7.88529 5.33789 7.87891L5.33887 7.875V7.87305C5.33921 7.87116 5.33985 7.86808 5.34082 7.86328V7.85742L5.3418 7.8584C5.34249 7.85493 5.34317 7.85111 5.34375 7.84863V7.84668L5.34473 7.84277L5.34766 7.83008V7.82715L5.34863 7.82812C5.34917 7.82565 5.34912 7.82394 5.35059 7.81836L5.35254 7.81348C5.35329 7.81059 5.35391 7.80712 5.35547 7.80176L5.35449 7.80078L5.35645 7.79883C5.35757 7.79499 5.35888 7.78982 5.36035 7.78516L5.36133 7.78418L5.3623 7.78125L5.36133 7.78027C5.36434 7.77112 5.36803 7.76214 5.37109 7.75391C5.47015 7.48831 5.72679 7.30005 6.02637 7.2998C6.06195 7.2998 6.09766 7.30245 6.13184 7.30762ZM5.12891 7.99902V8H5.12793V7.99902H5.12891ZM9.87988 7.12988C9.92238 7.31079 9.95245 7.49689 9.96875 7.68652H9.96777C9.95146 7.49695 9.92208 7.31081 9.87988 7.12988ZM6.11426 4.29492C6.12564 4.29513 6.13684 4.29563 6.14746 4.2959C6.1519 4.296 6.15736 4.29665 6.16309 4.29688H6.16406C6.17643 4.29728 6.18563 4.29748 6.19531 4.29785H6.21289C6.2224 4.29823 6.23278 4.29929 6.24219 4.2998H6.24414C6.24861 4.30001 6.25376 4.30043 6.25977 4.30078H6.26074C6.27035 4.30128 6.28045 4.30211 6.29004 4.30273H6.30664V4.30371C6.31722 4.30443 6.32807 4.304 6.33789 4.30469V4.30566C6.34291 4.30607 6.34866 4.30627 6.35352 4.30664L6.38672 4.30859V4.30957C6.38876 4.30976 6.39147 4.31031 6.39355 4.31055C6.3956 4.31074 6.39831 4.31043 6.40039 4.31055C6.41228 4.31165 6.42477 4.31322 6.43652 4.31445H6.4375C6.43898 4.3146 6.44095 4.3152 6.44238 4.31543C6.44345 4.31554 6.4452 4.3154 6.44629 4.31543C6.46058 4.31696 6.47441 4.31879 6.4873 4.32031H6.49219L6.49512 4.32129V4.32031C6.60584 4.33339 6.71572 4.35245 6.82324 4.375V4.37402C6.88818 4.38765 6.95344 4.40277 7.01758 4.41992V4.4209C7.01933 4.42139 7.02151 4.42171 7.02246 4.42188L7.02441 4.42285C7.03697 4.42624 7.05017 4.43012 7.0625 4.43359V4.43262C7.06548 4.43348 7.06954 4.43455 7.07324 4.43555C7.09062 4.4405 7.10871 4.44598 7.12598 4.45117V4.45215C7.13401 4.45454 7.14328 4.45561 7.15137 4.45801V4.45898C7.15824 4.46112 7.16539 4.46376 7.17188 4.46582H7.17285C7.18306 4.469 7.19305 4.47176 7.20508 4.47559V4.47656C7.20938 4.47796 7.21495 4.479 7.21973 4.48047V4.48145C7.73657 4.65167 8.20432 4.93221 8.59375 5.29492L8.59668 5.29688L8.59766 5.29785C8.62706 5.32532 8.6561 5.35441 8.68457 5.38281L8.68652 5.38477L8.68848 5.38574V5.38672C8.71685 5.41504 8.74592 5.44429 8.77344 5.47363L8.7793 5.47949C8.80547 5.50749 8.83174 5.53716 8.85742 5.56641C8.86047 5.56988 8.86319 5.57368 8.86523 5.57617H8.86621C8.87823 5.59 8.89031 5.60411 8.90137 5.61719V5.61816L8.9082 5.625C8.91827 5.63701 8.92854 5.64996 8.93848 5.66211C8.94266 5.66721 8.94677 5.6725 8.9502 5.67676C8.96102 5.69015 8.97196 5.7028 8.98145 5.71484V5.71582C8.98529 5.72067 8.98872 5.72453 8.99414 5.73145L9.01562 5.75879V5.75977C9.02173 5.76777 9.02606 5.77364 9.03027 5.7793L9.03125 5.78027C9.03763 5.78872 9.0448 5.79826 9.05176 5.80762C9.05971 5.81833 9.06818 5.82977 9.07617 5.84082V5.8418C9.07811 5.84448 9.08085 5.84768 9.08301 5.85059C9.08475 5.853 9.08783 5.85584 9.08984 5.8584V5.85938C9.09611 5.86817 9.10231 5.87798 9.1084 5.88672H9.10938C9.11039 5.88816 9.11153 5.89082 9.11328 5.89355L9.11523 5.89551C9.12859 5.91469 9.14156 5.93498 9.1543 5.9541C9.15556 5.956 9.15848 5.96007 9.16113 5.96387C9.45903 6.41237 9.66233 6.92965 9.74316 7.48633H7.68066V7.48438H7.67285C7.58986 7.21952 7.44637 6.98085 7.25684 6.78809L7.25586 6.78711C6.9433 6.47098 6.50841 6.27351 6.02832 6.27344C5.25434 6.27363 4.59943 6.78304 4.37988 7.48438H2.3623C2.38529 7.32634 2.41786 7.1704 2.45996 7.01953C2.89242 5.47035 4.29923 4.32843 5.97852 4.2959L6.05176 4.29492H6.11426ZM6.18555 6.48145C6.23396 6.48642 6.28213 6.49451 6.3291 6.50391C6.23193 6.48447 6.13122 6.47461 6.02832 6.47461V6.47363C6.08132 6.47363 6.13395 6.47617 6.18555 6.48145ZM9.21289 5.68848C9.22167 5.7003 9.23062 5.71265 9.23926 5.72461C9.24369 5.73073 9.24849 5.73704 9.25293 5.74316H9.25195C9.24756 5.73708 9.24267 5.72968 9.23828 5.72363C9.22981 5.71193 9.22051 5.70005 9.21191 5.68848H9.21289ZM8.82715 5.24121C8.8282 5.24226 8.82907 5.24401 8.83008 5.24512C8.86024 5.27522 8.8908 5.30584 8.91992 5.33691C8.92185 5.33898 8.92386 5.34166 8.92578 5.34375C8.95358 5.37349 8.98097 5.40401 9.00781 5.43457C8.98093 5.40398 8.95263 5.37352 8.9248 5.34375C8.92298 5.34171 8.92078 5.33887 8.91895 5.33691C8.88995 5.30598 8.86011 5.27509 8.83008 5.24512C8.82897 5.244 8.82723 5.24227 8.82617 5.24121H8.82715Z" fill="var(--fill-0, white)"/>
</svg>
