<svg preserveAspectRatio="none" width="100%" height="100%" overflow="visible" style="display: block;" viewBox="0 0 13.9998 11.9998" fill="none" xmlns="http://www.w3.org/2000/svg">
<path id="Vector (Stroke)" d="M5.29289 0.292893C5.68342 -0.0976311 6.31643 -0.0976311 6.70696 0.292893C7.09748 0.683418 7.09748 1.31643 6.70696 1.70696L2.41399 5.99992L6.70696 10.2929C7.09748 10.6834 7.09748 11.3164 6.70696 11.707C6.31643 12.0975 5.68342 12.0975 5.29289 11.707L0.292893 6.70696C-0.0976311 6.31643 -0.0976311 5.68342 0.292893 5.29289L5.29289 0.292893ZM12.2929 0.292893C12.6834 -0.0976311 13.3164 -0.0976311 13.707 0.292893C14.0975 0.683418 14.0975 1.31643 13.707 1.70696L9.41399 5.99992L13.707 10.2929C14.0975 10.6834 14.0975 11.3164 13.707 11.707C13.3164 12.0975 12.6834 12.0975 12.2929 11.707L7.29289 6.70696C6.90237 6.31643 6.90237 5.68342 7.29289 5.29289L12.2929 0.292893Z" fill="var(--fill-0, white)"/>
</svg>
