<svg preserveAspectRatio="none" width="100%" height="100%" overflow="visible" style="display: block;" viewBox="0 0 14 16" fill="none" xmlns="http://www.w3.org/2000/svg">
<g id="Shape">
<path fill-rule="evenodd" clip-rule="evenodd" d="M10.2667 6.05773C10.2667 5.52138 10.6845 5.08659 11.2 5.08659C12.7464 5.08659 14 6.39097 14 8C14 9.60903 12.7464 10.9134 11.2 10.9134C10.6845 10.9134 10.2667 10.4786 10.2667 9.94227C10.2667 9.40593 10.6845 8.97113 11.2 8.97113C11.7155 8.97113 12.1333 8.53634 12.1333 8C12.1333 7.46365 11.7155 7.02886 11.2 7.02886C10.6845 7.02886 10.2667 6.59407 10.2667 6.05773Z" fill="white"/>
<path fill-rule="evenodd" clip-rule="evenodd" d="M4.91261 0.981882C5.86232 -0.747418 8.4 -0.0462127 8.4 1.94552V14.0545C8.4 16.0462 5.86232 16.7474 4.91261 15.0181L3.1917 11.8845H1.86667C0.835735 11.8845 0 11.015 0 9.94227V6.05773C0 4.98504 0.835735 4.11546 1.86667 4.11546H3.1917L4.91261 0.981882Z" fill="white"/>
</g>
</svg>
