<svg preserveAspectRatio="none" width="100%" height="100%" overflow="visible" style="display: block;" viewBox="0 0 16 16" fill="none" xmlns="http://www.w3.org/2000/svg">
<path id="Vector" d="M4.34764 1.14835e-05C3.92515 -0.00123618 3.52969 0.0991312 3.09096 0.326621H3.09109C1.46585 1.16997 0.0708136 3.46199 0.00394347 5.37424L1.41442 5.86762C1.56036 3.72268 3.00046 1.41867 4.83636 0.465943H4.83642C4.9855 0.388657 5.13377 0.3217 5.28082 0.264931L4.53055 0.00673499C4.46887 0.00247215 4.408 0.000150112 4.34764 1.14835e-05ZM6.34768 0.699741C5.99452 0.696622 5.57813 0.806935 5.12002 1.04434L5.12015 1.0442C3.49457 1.88776 2.09937 4.18113 2.03455 6.0846L7.30883 7.92976C7.4391 5.77338 8.88611 3.44608 10.7337 2.48736H10.7337L10.7338 2.48726C10.8788 2.41212 11.0231 2.34669 11.1663 2.29089L6.63167 0.730066C6.54229 0.711282 6.44771 0.700711 6.34764 0.69981L6.34768 0.699741ZM12.245 2.72105C11.8919 2.71793 11.4755 2.82821 11.0175 3.06555L11.0173 3.06562C9.38002 3.91534 7.97629 6.23581 7.93042 8.14716L9.48774 8.69197C9.61966 6.53671 11.066 4.21169 12.9124 3.25356C13.0648 3.17444 13.2171 3.10599 13.3684 3.04874L12.4737 2.74084C12.4008 2.72871 12.3247 2.72178 12.2451 2.72109L12.245 2.72105ZM14.3871 3.484C14.041 3.48722 13.6424 3.6002 13.1962 3.83175C11.6067 4.65659 10.2377 6.86727 10.1168 8.74441L16 6.18927C15.9864 4.83729 15.6375 4.06464 15.1771 3.72577C15.098 3.66754 15.0131 3.61982 14.9226 3.58239L14.9223 3.58357L14.7627 3.52867C14.6454 3.49793 14.5202 3.48268 14.3871 3.48396L14.3871 3.484ZM0.00117966 6.0574L0 12.5551L1.40195 13.0567V6.54752L0.00117966 6.05747V6.0574ZM2.03189 6.7678V13.282L7.29933 15.1664V8.61046L6.32011 8.26784V12.4069L2.91411 11.2258V7.07642L2.03189 6.7678ZM15.9931 6.89544L10.1306 9.44161V16L15.993 13.4526V6.89541L15.9931 6.89544ZM3.54408 7.29684V10.7607L5.69023 11.5051V8.04756L3.54412 7.29681L3.54408 7.29684ZM4.59924 8.29487C4.92635 8.29487 5.19154 8.56752 5.19154 8.90387C5.19154 9.12359 5.07795 9.31559 4.90818 9.42268V10.4115H4.27824V9.4152C4.11518 9.30672 4.00699 9.11846 4.00699 8.90387C4.00699 8.56752 4.27214 8.29487 4.59924 8.29487ZM7.92917 8.83081V15.3917L9.50069 15.9538V9.38061L7.92914 8.83081H7.92917Z" fill="var(--fill-0, white)"/>
</svg>
