<svg preserveAspectRatio="none" width="100%" height="100%" overflow="visible" style="display: block;" viewBox="0 0 16 16" fill="none" xmlns="http://www.w3.org/2000/svg">
<g id="Vector">
<path d="M15.3846 16H0.615385C0.278974 16 0 15.7279 0 15.3998C0 15.0717 0.278974 14.7996 0.615385 14.7996H15.3846C15.721 14.7996 16 15.0717 16 15.3998C16 15.7279 15.721 16 15.3846 16Z" fill="var(--fill-0, white)"/>
<path d="M13.76 1.17941C12.1682 -0.373068 10.6092 -0.41308 8.97641 1.17941L7.98359 2.14771C7.90154 2.22774 7.86872 2.35578 7.90154 2.46781C8.52513 4.58847 10.2646 6.28499 12.439 6.89318C12.4718 6.90118 12.5046 6.90919 12.5374 6.90919C12.6277 6.90919 12.7097 6.87718 12.7754 6.81316L13.76 5.84486C14.5723 5.06061 14.9662 4.30038 14.9662 3.53214C14.9744 2.7399 14.5805 1.97166 13.76 1.17941Z" fill="var(--fill-0, white)"/>
<path d="M10.9621 7.62141C10.7241 7.50937 10.4944 7.39734 10.2728 7.2693C10.0923 7.16527 9.92 7.05323 9.74769 6.93319C9.60821 6.84517 9.4441 6.71713 9.2882 6.58909C9.27179 6.58108 9.21436 6.53307 9.14872 6.46905C8.87795 6.24498 8.57436 5.95689 8.30359 5.63679C8.27897 5.62079 8.23795 5.56477 8.18051 5.49275C8.09846 5.39672 7.95897 5.23667 7.8359 5.05261C7.73744 4.93257 7.62256 4.75652 7.5159 4.58047C7.38462 4.3644 7.26974 4.14833 7.15487 3.92426C7.13749 3.88793 7.12067 3.85179 7.10436 3.81586C6.98328 3.54912 6.62665 3.47114 6.41516 3.67741L1.71487 8.2616C1.60821 8.36564 1.50974 8.5657 1.48513 8.70174L1.04205 11.7667C0.96 12.3109 1.1159 12.823 1.46051 13.1671C1.7559 13.4472 2.16615 13.5993 2.60923 13.5993C2.70769 13.5993 2.80615 13.5913 2.90462 13.5752L6.05538 13.1431C6.20308 13.1191 6.40821 13.0231 6.50667 12.919L11.2011 8.34058C11.414 8.13287 11.3337 7.77639 11.0567 7.66111C11.0255 7.64813 10.994 7.6349 10.9621 7.62141Z" fill="var(--fill-0, white)"/>
</g>
</svg>
