<svg preserveAspectRatio="none" width="100%" height="100%" overflow="visible" style="display: block;" viewBox="0 0 16 14" fill="none" xmlns="http://www.w3.org/2000/svg">
<path id="Icon" fill-rule="evenodd" clip-rule="evenodd" d="M0 4.61497C0 2.0076 2.16607 0 4.70857 0C6.01917 0 7.17243 0.648961 8 1.48867C8.82757 0.648961 9.98083 0 11.2914 0C13.8339 0 16 2.0076 16 4.61497C16 6.40106 15.2787 7.97174 14.2795 9.29942C13.2819 10.6248 11.9771 11.7497 10.7277 12.6637C10.2506 13.0128 9.76779 13.3349 9.32596 13.5725C8.91109 13.7956 8.43405 14 8 14C7.56595 14 7.08891 13.7956 6.67404 13.5725C6.23221 13.3349 5.74945 13.0128 5.27226 12.6637C4.0229 11.7497 2.71805 10.6248 1.72052 9.29942C0.721262 7.97174 0 6.40106 0 4.61497ZM4.70857 1.44828C2.80754 1.44828 1.37143 2.92465 1.37143 4.61497C1.37143 5.97007 1.91615 7.23172 2.79414 8.39828C3.67386 9.56713 4.85753 10.5984 6.05325 11.4732C6.50571 11.8042 6.93188 12.0859 7.29641 12.2819C7.68791 12.4925 7.91466 12.5517 8 12.5517C8.08534 12.5517 8.31209 12.4925 8.70359 12.2819C9.06812 12.0859 9.49429 11.8042 9.94675 11.4732C11.1425 10.5984 12.3261 9.56713 13.2059 8.39828C14.0839 7.23172 14.6286 5.97007 14.6286 4.61497C14.6286 2.92465 13.1925 1.44828 11.2914 1.44828C10.1996 1.44828 9.18016 2.1371 8.5436 3.01137C8.4138 3.18964 8.21294 3.29412 8 3.29412C7.78706 3.29412 7.5862 3.18964 7.4564 3.01137C6.81984 2.1371 5.80037 1.44828 4.70857 1.44828Z" fill="var(--fill-0, white)"/>
</svg>
