<svg preserveAspectRatio="none" width="100%" height="100%" overflow="visible" style="display: block;" viewBox="0 0 18 14" fill="none" xmlns="http://www.w3.org/2000/svg">
<path id="Shape" d="M10.8001 12.25C13.7824 12.25 16.2 9.89947 16.2 7C16.2 4.10051 13.7823 1.75 10.8 1.75C7.94759 1.75 5.61172 3.90017 5.41361 6.62433L7.4636 4.63128C7.81508 4.28957 8.38492 4.28957 8.7364 4.63128C9.08787 4.97299 9.08787 5.52701 8.7364 5.86872L5.1364 9.36872C4.96761 9.53281 4.73869 9.625 4.5 9.625C4.26131 9.625 4.03239 9.53281 3.8636 9.36872L0.263604 5.86872C-0.087868 5.52701 -0.087868 4.97299 0.263604 4.63128C0.615076 4.28957 1.18492 4.28957 1.5364 4.63128L3.60903 6.64634C3.79849 2.94467 6.94554 0 10.8 0C14.7764 0 18 3.13401 18 7C18 10.866 14.7765 14 10.8001 14C10.8001 14 10.8001 14 10.8001 14C10.303 14 9.9 13.6082 9.9 13.125C9.9 12.6418 10.303 12.25 10.8001 12.25C10.8001 12.25 10.8001 12.25 10.8001 12.25Z" fill="var(--fill-0, white)"/>
</svg>
