<svg preserveAspectRatio="none" width="100%" height="100%" overflow="visible" style="display: block;" viewBox="0 0 14 16" fill="none" xmlns="http://www.w3.org/2000/svg">
<path id="Vector" d="M2.67119 0L1.62622 1.8962L2.35277 2.29142L10.1026 2.89092L11.3898 1.86955L9.94567 2.10491L10.587 0.510686L2.67119 0ZM11.3853 0.603941L12.363 1.81626L11.919 6.38579L12.0446 11.7191L14 13.642L13.4573 11.3683L13.704 6.3547L12.5693 1.48321L11.3853 0.603941ZM11.3315 2.69553L9.77973 4.00111L2.49628 3.34832L1.00282 5.31113L0.401845 10.8443L8.16966 12.0921L0.326499 11.5415L0 14.5479L8.75718 15.7336L9.15185 6.11935L11.3315 2.69553ZM11.6051 3.53039L9.9367 6.38579L9.65864 14.6411L11.2687 11.95L11.2822 6.38579L11.6051 3.53039ZM11.7665 12.4607L9.65864 16L13.8206 14.6411L11.7665 12.4607Z" fill="var(--fill-0, white)"/>
</svg>
