<svg preserveAspectRatio="none" width="100%" height="100%" overflow="visible" style="display: block;" viewBox="0 0 16 16" fill="none" xmlns="http://www.w3.org/2000/svg">
<g id="Shape">
<path fill-rule="evenodd" clip-rule="evenodd" d="M4.9539 0.981882C5.91158 -0.747418 8.47059 -0.0462127 8.47059 1.94552V14.0545C8.47059 16.0462 5.91158 16.7474 4.9539 15.0181L3.21852 11.8845H1.88235C0.842758 11.8845 0 11.015 0 9.94227V6.05773C0 4.98504 0.842758 4.11546 1.88235 4.11546H3.21852L4.9539 0.981882Z" fill="var(--fill-0, white)"/>
<path d="M10.6286 5.37105C10.9962 4.99179 11.5921 4.99179 11.9596 5.37105L13.1765 6.62662L14.3933 5.37105C14.7609 4.99179 15.3568 4.99179 15.7243 5.37105C16.0919 5.7503 16.0919 6.36519 15.7243 6.74444L14.5075 8.00001L15.7243 9.25559C16.0919 9.63484 16.0919 10.2497 15.7243 10.629C15.3568 11.0082 14.7609 11.0082 14.3933 10.629L13.1765 9.37341L11.9596 10.629C11.5921 11.0082 10.9962 11.0082 10.6286 10.629C10.2611 10.2497 10.2611 9.63484 10.6286 9.25559L11.8454 8.00001L10.6286 6.74444C10.2611 6.36519 10.2611 5.7503 10.6286 5.37105Z" fill="var(--fill-0, white)"/>
</g>
</svg>
