<svg preserveAspectRatio="none" width="100%" height="100%" overflow="visible" style="display: block;" viewBox="0 0 15.3333 15.3331" fill="none" xmlns="http://www.w3.org/2000/svg">
<g id="Group 1000003132">
<path id="Vector" d="M3.8073 4.38079C2.85036 4.47928 1.9834 5.38212 1.9834 6.54433C1.9834 7.18781 2.26148 7.75578 2.66634 8.14975L3.15298 8.61595L2.40461 8.72757C1.87707 8.80965 1.49266 9.0329 1.16141 9.39732C0.830168 9.76174 0.576621 10.2673 0.400774 10.855C0.0817957 11.9122 0.00818537 13.2057 6.4373e-06 14.3482H1.7503L1.8419 15.3331H6.28143L6.36322 14.3482H8.03172C8.03172 13.1926 8.01536 11.8826 7.72501 10.8123C7.56143 10.2247 7.32015 9.71906 6.98481 9.35792C6.64948 8.99679 6.24462 8.77354 5.65165 8.70131L4.8951 8.6061L5.37356 8.12349C5.76206 7.7328 6.02379 7.1714 6.02379 6.54433C6.02379 5.30333 5.05868 4.38407 4.00359 4.38407L3.8073 4.38079Z" fill="var(--fill-0, white)"/>
<path id="Vector_2" d="M11.1089 4.38079C10.1519 4.47928 9.28496 5.38212 9.28496 6.54433C9.28496 7.18781 9.56304 7.75578 9.9679 8.14975L10.4545 8.61595L9.70617 8.72757C9.17863 8.80965 8.79422 9.0329 8.46298 9.39732C8.13173 9.76174 7.87818 10.2673 7.70233 10.855C7.38336 11.9122 7.30975 13.2057 7.30157 14.3482H9.05186L9.14346 15.3331H13.583L13.6648 14.3482H15.3333C15.3333 13.1926 15.3169 11.8826 15.0266 10.8123C14.863 10.2247 14.6217 9.71906 14.2864 9.35792C13.951 8.99679 13.5462 8.77354 12.9532 8.70131L12.1967 8.6061L12.6751 8.12349C13.0636 7.7328 13.3254 7.1714 13.3254 6.54433C13.3254 5.30333 12.3602 4.38407 11.3052 4.38407L11.1089 4.38079Z" fill="var(--fill-0, white)"/>
<path id="Subtract" d="M4.74702 2.8121C5.18895 1.60351 6.34254 0.798619 7.6294 0.800494C7.81031 0.800776 7.98857 0.816839 8.16251 0.847861C8.96402 0.990854 9.67456 1.44848 10.1372 2.11055L10.9364 1.55263L10.6031 3.42695L8.72844 3.09366L9.552 2.519C9.12053 1.90025 8.4085 1.51549 7.6284 1.5143C6.63923 1.51284 5.75742 2.12829 5.41769 3.05727C5.40717 3.08604 5.39703 3.11496 5.38769 3.14394L4.71909 2.89284C4.7281 2.86591 4.73722 2.83889 4.74702 2.8121Z" fill="var(--fill-0, white)"/>
</g>
</svg>
