<svg preserveAspectRatio="none" width="100%" height="100%" overflow="visible" style="display: block;" viewBox="0 0 16 16" fill="none" xmlns="http://www.w3.org/2000/svg">
<path id="Shape" d="M8.80231 0.684939C8.65726 -0.228318 7.34274 -0.228308 7.19769 0.684939L6.58026 4.57243L3.39479 2.26015C2.64645 1.71694 1.71696 2.64647 2.26015 3.39479L4.57243 6.58026L0.684939 7.19769C-0.228318 7.34274 -0.228308 8.65726 0.684939 8.80231L4.57243 9.41974L2.26015 12.6052C1.71694 13.3535 2.64647 14.283 3.39479 13.7398L6.58026 11.4276L7.19769 15.3151C7.34274 16.2283 8.65726 16.2283 8.80231 15.3151L9.41974 11.4276L12.6052 13.7398C13.3535 14.2831 14.283 13.3535 13.7398 12.6052L11.4276 9.41974L15.3151 8.80231C16.2283 8.65726 16.2283 7.34274 15.3151 7.19769L11.4276 6.58026L13.7398 3.39479C14.2831 2.64645 13.3535 1.71695 12.6052 2.26015L9.41974 4.57243L8.80231 0.684939Z" fill="var(--fill-0, white)"/>
</svg>
