<svg preserveAspectRatio="none" width="100%" height="100%" overflow="visible" style="display: block;" viewBox="0 0 18 12" fill="none" xmlns="http://www.w3.org/2000/svg">
<g id="Shape">
<path d="M0 1C0 0.447715 0.447715 0 1 0H17C17.5523 0 18 0.447715 18 1C18 1.55228 17.5523 2 17 2H1C0.447716 2 0 1.55228 0 1Z" fill="white"/>
<path d="M4 6C4 5.44772 4.44772 5 5 5H13C13.5523 5 14 5.44772 14 6C14 6.55228 13.5523 7 13 7H5C4.44772 7 4 6.55228 4 6Z" fill="white"/>
<path d="M7 11C7 10.4477 7.44772 10 8 10H10C10.5523 10 11 10.4477 11 11C11 11.5523 10.5523 12 10 12H8C7.44772 12 7 11.5523 7 11Z" fill="white"/>
</g>
</svg>
