<svg preserveAspectRatio="none" width="100%" height="100%" overflow="visible" style="display: block;" viewBox="0 0 16 16" fill="none" xmlns="http://www.w3.org/2000/svg">
<g id="Shape">
<path d="M1.6 0C0.716344 0 0 0.716345 0 1.6V14.4C0 15.2837 0.716344 16 1.6 16H7.2C8.08366 16 8.8 15.2837 8.8 14.4V10.4H4.8C3.91634 10.4 3.2 9.68366 3.2 8.8V7.2C3.2 6.31634 3.91634 5.6 4.8 5.6H8.8V1.6C8.8 0.716345 8.08366 0 7.2 0H1.6Z" fill="var(--fill-0, white)"/>
<path d="M4.8 7.2V8.8L13.2686 8.8L11.4343 10.6343C11.1219 10.9467 11.1219 11.4533 11.4343 11.7657C11.7467 12.0781 12.2533 12.0781 12.5657 11.7657L15.6525 8.67882C15.6725 8.65885 15.6914 8.63821 15.7093 8.61699C15.8868 8.47025 16 8.24834 16 8C16 7.75166 15.8868 7.52976 15.7093 7.38302C15.6914 7.36179 15.6725 7.34115 15.6525 7.32118L12.5657 4.23431C12.2533 3.92189 11.7467 3.92189 11.4343 4.23431C11.1219 4.54673 11.1219 5.05327 11.4343 5.36569L13.2686 7.2L4.8 7.2Z" fill="var(--fill-0, white)"/>
</g>
</svg>
