<svg preserveAspectRatio="none" width="100%" height="100%" overflow="visible" style="display: block;" viewBox="0 0 12 12" fill="none" xmlns="http://www.w3.org/2000/svg">
<g id="Group 1000003135">
<path id="Vector" d="M5.99999 12C2.69163 12 0 9.30835 0 5.99999C0 2.69163 2.69163 0 5.99999 0C9.30835 0 12 2.69163 12 5.99999C12 9.30835 9.30835 12 5.99999 12ZM5.99999 1.05106C3.27095 1.05106 1.05106 3.27126 1.05106 5.99999C1.05106 8.72872 3.27126 10.9489 5.99999 10.9489C8.72872 10.9489 10.9489 8.72872 10.9489 5.99999C10.9489 3.27126 8.72872 1.05106 5.99999 1.05106Z" fill="var(--fill-0, white)"/>
<path id="Vector_2" d="M6.00001 8.39425C4.68001 8.39425 3.60576 7.32032 3.60576 6.00001C3.60576 4.67969 4.6797 3.60576 6.00001 3.60576C7.32032 3.60576 8.39426 4.67969 8.39426 6.00001C8.39426 7.32032 7.32032 8.39425 6.00001 8.39425ZM6.00001 4.65682C5.25932 4.65682 4.65682 5.25932 4.65682 6.00001C4.65682 6.74069 5.25932 7.34319 6.00001 7.34319C6.7407 7.34319 7.3432 6.74069 7.3432 6.00001C7.3432 5.25932 6.7407 4.65682 6.00001 4.65682Z" fill="var(--fill-0, white)"/>
<path id="Vector_3" d="M6.00001 6.61983C6.34232 6.61983 6.61982 6.34233 6.61982 6.00001C6.61982 5.6577 6.34232 5.3802 6.00001 5.3802C5.6577 5.3802 5.3802 5.6577 5.3802 6.00001C5.3802 6.34233 5.6577 6.61983 6.00001 6.61983Z" fill="var(--fill-0, white)"/>
<path id="Vector_4" d="M4.1316 5.47448H0.525547V6.52554H4.1316V5.47448Z" fill="var(--fill-0, white)"/>
<path id="Vector_5" d="M11.4748 5.47448H7.86873V6.52554H11.4748V5.47448Z" fill="var(--fill-0, white)"/>
</g>
</svg>
