<svg preserveAspectRatio="none" width="100%" height="100%" overflow="visible" style="display: block;" viewBox="0 0 13 14" fill="none" xmlns="http://www.w3.org/2000/svg">
<path id="Vector" d="M13 0.525006C13 0.35905 12.9143 0.202866 12.7688 0.103802C12.6234 0.00473829 12.4353 -0.0255436 12.2617 0.0221474L4.61461 2.12215C4.37201 2.18877 4.20588 2.39316 4.20588 2.62501V9.53911C3.77236 9.26233 3.24512 9.1 2.67647 9.1C1.19829 9.1 0 10.1969 0 11.55C0 12.9031 1.19829 14 2.67647 14C4.15465 14 5.35294 12.9031 5.35294 11.55C5.35294 11.5098 5.35189 11.4699 5.3498 11.4302C5.35188 11.4121 5.35294 11.3936 5.35294 11.375V5.8156L11.8529 4.03062V8.13911C11.4194 7.86233 10.8922 7.7 10.3235 7.7C8.84535 7.7 7.64706 8.7969 7.64706 10.15C7.64706 11.5031 8.84535 12.6 10.3235 12.6C11.8017 12.6 13 11.5031 13 10.15C13 10.1099 12.9989 10.0699 12.9969 10.0303C12.9989 10.0121 13 9.99369 13 9.975V0.525006Z" fill="var(--fill-0, white)"/>
</svg>
