<svg preserveAspectRatio="none" width="100%" height="100%" overflow="visible" style="display: block;" viewBox="0 0 16 16" fill="none" xmlns="http://www.w3.org/2000/svg">
<g id="Vector">
<path d="M5.625 0V5.62531H0V0H5.625ZM4.375 1.25H1.25V4.375H4.375V1.25Z" fill="var(--fill-0, white)"/>
<path d="M10.375 0H16V5.625H10.3747L10.375 0ZM14.75 1.25H11.625V4.375H14.75V1.25Z" fill="var(--fill-0, white)"/>
<path d="M0 10.375H5.62531V16H0V10.375ZM4.375 11.625H1.25V14.75H4.375V11.625Z" fill="var(--fill-0, white)"/>
<path d="M9.25 7.96875C9.25157 7.5525 9.24907 7.135 9.25 6.71875H13C13.0009 7.135 12.9984 7.5525 13 7.96875C11.7506 7.96875 10.4994 7.96969 9.25 7.96875Z" fill="var(--fill-0, white)"/>
<path d="M16 6.71875V7.96875H14.75C14.7512 7.5525 14.7491 7.13469 14.75 6.71844L16 6.71875Z" fill="var(--fill-0, white)"/>
<path d="M3.125 7.96875C3.54125 7.9675 3.95875 7.96969 4.375 7.96875V6.71875H5.625V7.96875C5.99937 7.97 6.37562 7.96719 6.75 7.96875C6.75031 8.385 6.74937 8.8025 6.75 9.21875C5.54219 9.21781 4.33281 9.21937 3.12469 9.21875C3.12406 8.8025 3.12656 8.385 3.125 7.96875Z" fill="var(--fill-0, white)"/>
<path d="M0 6.71875H3.12531C3.12594 7.13469 3.12344 7.5525 3.125 7.96875C2.50062 7.97094 1.87469 7.96719 1.25031 7.96875V9.21875H0V6.71875Z" fill="var(--fill-0, white)"/>
<path d="M9.25 7.96875C9.24844 8.385 9.25063 8.8025 9.25 9.21875C8.83375 9.2175 8.41625 9.21907 8 9.21875C8.00032 8.8025 7.99969 8.385 8 7.96875C8.41625 7.96906 8.83375 7.96844 9.25 7.96875Z" fill="var(--fill-0, white)"/>
<path d="M8 3.125C8.41625 3.12625 8.83375 3.12406 9.25 3.125V5.625H8C7.99938 6.40563 8.00094 7.18813 8 7.96875C7.58375 7.96844 7.16625 7.97031 6.75 7.96875C6.74875 6.77125 6.75094 5.5725 6.75 4.375H8C8.00094 3.95875 7.99844 3.54125 8 3.125Z" fill="var(--fill-0, white)"/>
<path d="M14.75 7.96875C14.7487 8.385 14.7506 8.8025 14.75 9.21875C14.1672 9.21875 13.5828 9.21688 13 9.21875C12.9984 9.635 13.0009 10.0525 13 10.4688H11.75V9.21875C12.1662 9.21781 12.5838 9.22 13 9.21875C13.0016 8.8025 13.0016 8.385 13 7.96875H14.75Z" fill="var(--fill-0, white)"/>
<path d="M9.25 0V1.87531C8.83406 1.87594 8.41625 1.87375 8 1.87531V0H9.25Z" fill="var(--fill-0, white)"/>
<path d="M8 9.21875C7.99938 9.81188 8 10.4069 8 11C7.58375 11 7.16594 11 6.74969 11C6.74906 10.4066 6.75125 9.81219 6.75 9.21875C7.16625 9.21906 7.58375 9.21844 8 9.21875Z" fill="var(--fill-0, white)"/>
<path d="M13 14.75V16H11.75V14.7497C12.1659 14.7491 12.5838 14.7516 13 14.75Z" fill="var(--fill-0, white)"/>
<path d="M9.25 9.21875C9.66625 9.22 10.0841 9.21781 10.5003 9.21875C10.5025 10.2288 10.4969 11.2403 10.5003 12.2503C9.6675 12.2509 8.83313 12.2475 8.00031 12.2503L8 11L9.25062 11.0003C9.25125 10.4072 9.24875 9.81219 9.25 9.21875Z" fill="var(--fill-0, white)"/>
<path d="M16 9.21875V12.25H13C13.0016 11.8338 12.9991 11.4162 13 11H14.75C14.7506 10.4069 14.7491 9.81187 14.75 9.21875H16Z" fill="var(--fill-0, white)"/>
<path d="M16 14.75V16H14.25C14.25 15.5838 14.25 15.1662 14.25 14.75H16Z" fill="var(--fill-0, white)"/>
<path d="M13 13.5C13.4162 13.5012 13.8341 13.4991 14.2503 13.5C14.2503 13.9162 14.2497 14.3338 14.25 14.75C13.8338 14.75 13.4162 14.7487 13 14.75V13.5Z" fill="var(--fill-0, white)"/>
<path d="M8.00031 12.2503L8 13.5C7.58375 13.4987 7.16625 13.5009 6.75 13.5V12.25C7.16625 12.2491 7.58406 12.2516 8.00031 12.2503Z" fill="var(--fill-0, white)"/>
<path d="M8 1.87531C8 2.29156 8.00156 2.70875 8 3.125C7.58375 3.12375 7.16625 3.12594 6.75 3.125V1.875C7.16625 1.87406 7.58375 1.87656 8 1.87531Z" fill="var(--fill-0, white)"/>
<path d="M13 12.25C12.9984 12.6662 13 13.0837 13 13.5C12.1672 13.4972 11.3328 13.5019 10.4997 13.5C10.4991 13.0837 10.5019 12.6666 10.5003 12.2503C11.3331 12.2497 12.1672 12.25 13 12.25Z" fill="var(--fill-0, white)"/>
<path d="M8 13.5C8.41625 13.5012 8.83375 13.4991 9.25 13.5V14.75H10.5V16H8V13.5Z" fill="var(--fill-0, white)"/>
<path d="M3.4375 2.1875H2.1875V3.4375H3.4375V2.1875Z" fill="var(--fill-0, white)"/>
<path d="M13.8125 2.1875H12.5625V3.4375H13.8125V2.1875Z" fill="var(--fill-0, white)"/>
<path d="M3.4375 12.5625H2.1875V13.8125H3.4375V12.5625Z" fill="var(--fill-0, white)"/>
</g>
</svg>
