<svg preserveAspectRatio="none" width="100%" height="100%" overflow="visible" style="display: block;" viewBox="0 0 16 14" fill="none" xmlns="http://www.w3.org/2000/svg">
<path id="Icon" fill-rule="evenodd" clip-rule="evenodd" d="M0 4.61497C0 2.0076 2.16607 0 4.70857 0C6.01917 0 7.17243 0.648962 8 1.48867C8.82757 0.648962 9.98083 0 11.2914 0C13.8339 0 16 2.0076 16 4.61497C16 6.40106 15.2787 7.97174 14.2795 9.29942C13.2819 10.6248 11.9771 11.7497 10.7277 12.6637C10.2506 13.0128 9.76779 13.3349 9.32596 13.5725C8.91109 13.7956 8.43405 14 8 14C7.56595 14 7.08891 13.7956 6.67404 13.5725C6.23221 13.3349 5.74945 13.0128 5.27226 12.6637C4.0229 11.7497 2.71805 10.6248 1.72052 9.29942C0.721262 7.97174 0 6.40106 0 4.61497Z" fill="var(--fill-0, white)"/>
</svg>
