<svg preserveAspectRatio="none" width="100%" height="100%" overflow="visible" style="display: block;" viewBox="0 0 16 16" fill="none" xmlns="http://www.w3.org/2000/svg">
<path id="Vector" d="M15.9922 7.61584C15.887 5.22357 14.7147 3.0227 12.7749 1.57753C11.3522 0.517254 9.62591 -0.0423504 7.91474 0.00250139C7.62893 0.00980285 7.36395 0.134449 7.16821 0.352971C6.95998 0.585575 6.85065 0.907361 6.87616 1.21402C6.92614 1.81691 7.42122 2.25604 8.05321 2.25865C9.61289 2.26491 11.1252 2.93247 12.2018 4.08975C13.2471 5.21366 13.7911 6.67551 13.7339 8.20726C13.6766 9.74421 13.0238 11.1659 11.8957 12.21C9.57229 14.3608 5.93182 14.2148 3.78075 11.8846C2.03365 9.99246 1.76815 7.14072 3.13522 4.95081C3.29087 4.70099 3.3346 4.38755 3.25547 4.0908C3.17426 3.78518 2.97488 3.52859 2.7099 3.38673C2.15235 3.08893 1.50578 3.27043 1.17156 3.81856C0.341744 5.18028 -0.0611913 6.74801 0.00752628 8.35224C0.184526 12.4802 3.55117 15.8368 7.67266 15.9937C7.78147 15.9979 7.88975 16 7.99803 16C9.03036 16 10.0247 15.8107 10.9576 15.4362C12.9899 14.62 14.622 12.9866 15.4357 10.9547C15.8558 9.90589 16.0432 8.78251 15.9917 7.61584H15.9922Z" fill="var(--fill-0, white)"/>
</svg>
