<svg preserveAspectRatio="none" width="100%" height="100%" overflow="visible" style="display: block;" viewBox="0 0 16 16" fill="none" xmlns="http://www.w3.org/2000/svg">
<path id="Vector" fill-rule="evenodd" clip-rule="evenodd" d="M11.0088 15.9973C11.333 15.9973 11.5987 15.7244 11.5987 15.3925V12.0782C11.8005 10.2914 12.5452 10.8221 13.4215 11.3747C15.54 12.7103 16.9475 9.19712 15.2353 8.11382C13.8916 7.26363 13.3096 8.7254 12.3252 8.57456C11.945 8.5156 11.6807 8.09462 11.5974 7.45423V5.05999C11.5974 4.72677 11.3317 4.45526 11.0075 4.45526H8.29796C6.06104 4.16455 8.04667 2.89613 8.04667 1.71546C8.04797 0.767912 7.21075 0 6.17823 0C5.1457 0 4.20041 0.767912 4.20041 1.71546C4.20041 2.82893 6.25505 4.16455 3.98688 4.45526H0.589828C0.265618 4.45526 0 4.72677 0 5.05999V7.44875C0.173173 8.4676 0.84503 8.70346 1.70569 8.03154C1.99604 7.80391 2.48561 7.53925 2.83977 7.53925C3.76292 7.53925 4.5129 8.3963 4.5129 9.45355C4.5129 10.5108 3.76423 11.601 2.83977 11.601C2.51035 11.601 2.20307 11.4913 1.94266 11.3007C1.94266 11.3816 0.328116 9.81282 0 11.7326V15.3953C0 15.7285 0.265618 16 0.589828 16C2.40879 16 4.22515 16 6.04281 15.9986C6.11442 15.649 5.88136 15.2485 5.66261 14.9016C3.9413 12.1687 10.6377 11.8958 8.91644 14.9866C8.8318 15.1388 8.74717 15.2869 8.68207 15.4309C8.60004 15.6106 8.54535 15.83 8.55707 15.9986H11.0088V15.9973Z" fill="var(--fill-0, white)"/>
</svg>
