<svg preserveAspectRatio="none" width="100%" height="100%" overflow="visible" style="display: block;" viewBox="0 0 15 14" fill="none" xmlns="http://www.w3.org/2000/svg">
<path id="Shape" fill-rule="evenodd" clip-rule="evenodd" d="M0.389165 0.37052C0.907962 -0.11151 1.74899 -0.111414 2.26766 0.370734L7.46409 5.19808L12.6671 0.361961C13.1856 -0.120346 14.0266 -0.120699 14.5456 0.361172C15.0646 0.843044 15.0649 1.62466 14.5464 2.10697L9.34236 6.9441L14.6111 11.8927C15.1297 12.3749 15.1296 13.1565 14.6108 13.6385C14.092 14.1206 13.251 14.1205 12.7323 13.6383L7.46471 8.69068L2.31188 13.6008C1.79338 14.0831 0.95235 14.0835 0.433382 13.6016C-0.0855855 13.1197 -0.0859655 12.3381 0.432533 11.8558L5.58644 6.94467L0.388934 2.11632C-0.129735 1.63417 -0.129632 0.85255 0.389165 0.37052Z" fill="var(--fill-0, white)"/>
</svg>
