<svg preserveAspectRatio="none" width="100%" height="100%" overflow="visible" style="display: block;" viewBox="0 0 20 16" fill="none" xmlns="http://www.w3.org/2000/svg">
<path id="Shape" fill-rule="evenodd" clip-rule="evenodd" d="M17.1061 5.53469L17.1951 5.61788L19.7232 8.29291L19.8018 8.38712C20.0661 8.74672 20.0661 9.25332 19.8018 9.61292L19.7232 9.70713L19.6342 9.79032C19.2943 10.0699 18.8156 10.0699 18.4757 9.79032L18.3867 9.70713L17.5066 8.77502C17.4025 9.91931 17.0686 11.0151 16.5296 12.0008C15.1877 14.4553 12.7111 16 9.98121 16C7.62867 16 5.45282 14.8544 4.02894 12.9332C3.70685 12.4986 3.77869 11.8701 4.1894 11.5292C4.60011 11.1884 5.19417 11.2644 5.51626 11.699C6.58557 13.1418 8.21555 14 9.98121 14C12.0295 14 13.8862 12.842 14.8935 10.9994C15.2776 10.2969 15.5225 9.5208 15.6126 8.70801L14.667 9.70713L14.578 9.79032C14.2073 10.0953 13.6712 10.0676 13.3305 9.70713C12.9898 9.34664 12.9636 8.77941 13.2519 8.38712L13.3305 8.29291L15.8586 5.61788L15.9476 5.53469C16.2875 5.25508 16.7662 5.25508 17.1061 5.53469ZM10.0649 0C12.4175 0 14.5933 1.1456 16.0172 3.06677C16.3393 3.50135 16.2674 4.12994 15.8567 4.47075C15.446 4.81157 14.852 4.73555 14.5299 4.30097C13.4606 2.8582 11.8306 2 10.0649 2C8.01662 2 6.15999 3.158 5.1526 5.00064C4.91308 5.43875 4.72768 5.90552 4.60019 6.39199L5.33297 5.61788L5.422 5.53469C5.79274 5.22967 6.32881 5.2574 6.6695 5.61788C7.01018 5.97836 7.03638 6.54559 6.74811 6.93789L6.6695 7.03209L4.14141 9.70713L4.05238 9.79032C3.71253 10.0699 3.23376 10.0699 2.89392 9.79032L2.80489 9.70713L0.276803 7.03209L0.198185 6.93789C-0.0660615 6.57829 -0.0660615 6.07169 0.198185 5.71209L0.276803 5.61788L0.365835 5.53469C0.705681 5.25508 1.18445 5.25508 1.5243 5.53469L1.61333 5.61788L2.60838 6.67116C2.7576 5.72742 3.06517 4.82471 3.51651 3.99916C4.8584 1.54469 7.33499 0 10.0649 0Z" fill="var(--fill-0, white)"/>
</svg>
