<svg preserveAspectRatio="none" width="100%" height="100%" overflow="visible" style="display: block;" viewBox="0 0 10.6667 10.6667" fill="none" xmlns="http://www.w3.org/2000/svg">
<path id="Shape" fill-rule="evenodd" clip-rule="evenodd" d="M10.6667 5.33333C10.6667 8.27885 8.27885 10.6667 5.33333 10.6667C2.38781 10.6667 0 8.27885 0 5.33333C0 2.38781 2.38781 0 5.33333 0C8.27885 0 10.6667 2.38781 10.6667 5.33333ZM5.86667 3.2C5.86667 3.49455 5.62789 3.73333 5.33333 3.73333C5.03878 3.73333 4.8 3.49455 4.8 3.2C4.8 2.90545 5.03878 2.66667 5.33333 2.66667C5.62789 2.66667 5.86667 2.90545 5.86667 3.2ZM4.8 5.33333C4.8 5.03878 5.03878 4.8 5.33333 4.8C5.62789 4.8 5.86667 5.03878 5.86667 5.33333V8C5.86667 8.29455 5.62789 8.53333 5.33333 8.53333C5.03878 8.53333 4.8 8.29455 4.8 8V5.33333Z" fill="var(--fill-0, white)"/>
</svg>
