<svg preserveAspectRatio="none" width="100%" height="100%" overflow="visible" style="display: block;" viewBox="0 0 16 16" fill="none" xmlns="http://www.w3.org/2000/svg">
<path id="Shape" fill-rule="evenodd" clip-rule="evenodd" d="M16 8C16 12.4183 12.4183 16 8 16C3.58172 16 0 12.4183 0 8C0 3.58172 3.58172 0 8 0C12.4183 0 16 3.58172 16 8ZM8.8 4.8C8.8 5.24183 8.44183 5.6 8 5.6C7.55817 5.6 7.2 5.24183 7.2 4.8C7.2 4.35817 7.55817 4 8 4C8.44183 4 8.8 4.35817 8.8 4.8ZM7.2 8C7.2 7.55817 7.55817 7.2 8 7.2C8.44183 7.2 8.8 7.55817 8.8 8V12C8.8 12.4418 8.44183 12.8 8 12.8C7.55817 12.8 7.2 12.4418 7.2 12V8Z" fill="var(--fill-0, white)"/>
</svg>
