<svg preserveAspectRatio="none" width="100%" height="100%" overflow="visible" style="display: block;" viewBox="0 0 13.3333 13.3333" fill="none" xmlns="http://www.w3.org/2000/svg">
<path id="Vector" d="M8.58302 0L7.02499 1.55662L7.48506 2.01613L7.12377 2.37629L6.66653 1.91706L0 8.58302L1.28623 9.87009C2.09065 9.458 2.87305 9.53986 3.33312 9.99993C3.79319 10.46 3.87505 11.2418 3.46296 12.0463L4.75003 13.3333L11.414 6.66935L10.9568 6.20928L11.318 5.84799L11.7781 6.30524L13.3333 4.75003L12.0463 3.46296C11.2418 3.87505 10.46 3.79319 9.99993 3.33312C9.53986 2.87305 9.458 2.09065 9.87009 1.28623L8.58302 0ZM8.12577 2.65289L9.08261 3.61255L8.72132 3.97384L7.76449 3.01418L8.12577 2.65289ZM6.66653 3.11579L10.2173 6.66653L5.70969 11.1769L2.155 7.62336L6.48588 3.29361L6.66653 3.11579ZM6.66653 3.83271L2.87305 7.62336L5.70969 10.46L9.50034 6.66653L6.66653 3.83271ZM9.7205 4.25044L10.6802 5.20728L10.3189 5.56856L9.35922 4.61173L9.7205 4.25044Z" fill="var(--fill-0, white)"/>
</svg>
