<svg preserveAspectRatio="none" width="100%" height="100%" overflow="visible" style="display: block;" viewBox="0 0 18 17" fill="none" xmlns="http://www.w3.org/2000/svg">
<g id="Shape">
<path fill-rule="evenodd" clip-rule="evenodd" d="M0 2.83333C0 1.26853 1.33785 0 2.98818 0H3.98424C4.53434 0 4.98029 0.422842 4.98029 0.944444C4.98029 1.46605 4.53434 1.88889 3.98424 1.88889H2.98818C2.43807 1.88889 1.99212 2.31173 1.99212 2.83333V14.1667C1.99212 14.6883 2.43807 15.1111 2.98818 15.1111H14.9409C15.491 15.1111 15.9369 14.6883 15.9369 14.1667V13.2222C15.9369 12.7006 16.3829 12.2778 16.933 12.2778C17.4831 12.2778 17.9291 12.7006 17.9291 13.2222V14.1667C17.9291 15.7315 16.5912 17 14.9409 17H2.98818C1.33785 17 0 15.7315 0 14.1667V2.83333Z" fill="white"/>
<path fill-rule="evenodd" clip-rule="evenodd" d="M9.96074 1.88889C9.41063 1.88889 8.96468 1.46605 8.96468 0.944444C8.96468 0.422842 9.41063 0 9.96074 0H17.0039C17.554 0 18 0.422843 18 0.944445L18 7.62267C18 8.14428 17.554 8.56712 17.0039 8.56712C16.4538 8.56712 16.0079 8.14428 16.0079 7.62268L16.0079 3.15741L8.67279 10.1124C8.28381 10.4812 7.65314 10.4812 7.26415 10.1124C6.87517 9.74358 6.87517 9.14559 7.26415 8.77676L14.5285 1.88889H9.96074Z" fill="white"/>
</g>
</svg>
