<svg preserveAspectRatio="none" width="100%" height="100%" overflow="visible" style="display: block;" viewBox="0 0 16 16" fill="none" xmlns="http://www.w3.org/2000/svg">
<g id="Shape">
<path d="M8.8 9.5995H14.4V14.3999C14.4 15.2836 13.6837 16 12.8 16H8.8V9.5995Z" fill="white"/>
<path d="M7.2 9.5995V16H3.2C2.31634 16 1.6 15.2836 1.6 14.3999V9.5995H7.2Z" fill="white"/>
<path fill-rule="evenodd" clip-rule="evenodd" d="M0 5.59919C0 5.15733 0.358172 4.79913 0.8 4.79913H3.25937C2.30999 3.85972 2.07444 2.36313 2.85246 1.20957C3.73751 -0.102673 5.52547 -0.364995 6.82241 0.509873C7.22101 0.778757 7.52737 1.22053 7.75294 1.61306C7.83935 1.76343 7.92185 1.92099 8 2.0812C8.07816 1.92099 8.16065 1.76343 8.24706 1.61306C8.47263 1.22053 8.77899 0.778757 9.17759 0.509873C10.4745 -0.364995 12.2625 -0.102673 13.1475 1.20957C13.9256 2.36313 13.69 3.85972 12.7406 4.79913H15.2C15.6418 4.79913 16 5.15733 16 5.59919V7.19931C16 7.64118 15.6418 7.99938 15.2 7.99938H0.8C0.358172 7.99938 0 7.64118 0 7.19931V5.59919ZM4.58564 3.82628C3.95955 3.40395 3.82864 2.62371 4.17892 2.10435C4.5292 1.585 5.30161 1.4141 5.9277 1.83644C6.00985 1.89185 6.16678 2.06417 6.36571 2.41036C6.55121 2.73317 6.72788 3.12564 6.88338 3.51857C6.95844 3.70822 7.02698 3.89394 7.08776 4.06655C6.90497 4.07484 6.70711 4.08086 6.50317 4.08231C6.08062 4.08531 5.65058 4.06851 5.2818 4.01743C4.88633 3.96265 4.66779 3.8817 4.58564 3.82628ZM11.8211 2.10435C12.1714 2.62371 12.0405 3.40395 11.4144 3.82628C11.3322 3.8817 11.1137 3.96265 10.7182 4.01743C10.3494 4.06851 9.91938 4.08531 9.49683 4.08231C9.29289 4.08086 9.09503 4.07484 8.91224 4.06655C8.97302 3.89394 9.04156 3.70822 9.11662 3.51857C9.27212 3.12564 9.44879 2.73317 9.63429 2.41036C9.83322 2.06417 9.99015 1.89185 10.0723 1.83644C10.6984 1.4141 11.4708 1.585 11.8211 2.10435Z" fill="white"/>
</g>
</svg>
