<svg preserveAspectRatio="none" width="100%" height="100%" overflow="visible" style="display: block;" viewBox="0 0 16 13" fill="none" xmlns="http://www.w3.org/2000/svg">
<g id="Shape">
<path d="M0 2.4375C0 1.09131 1.07452 0 2.4 0H13.6C14.9255 0 16 1.09131 16 2.4375V3.25H0V2.4375Z" fill="var(--fill-0, white)"/>
<path fill-rule="evenodd" clip-rule="evenodd" d="M0 4.875H16V10.5625C16 11.9087 14.9255 13 13.6 13H2.4C1.07452 13 0 11.9087 0 10.5625V4.875ZM12.8 8.9375C12.8 9.38623 12.4418 9.75 12 9.75C11.5582 9.75 11.2 9.38623 11.2 8.9375C11.2 8.48877 11.5582 8.125 12 8.125C12.4418 8.125 12.8 8.48877 12.8 8.9375Z" fill="var(--fill-0, white)"/>
</g>
</svg>
