<svg preserveAspectRatio="none" width="100%" height="100%" overflow="visible" style="display: block;" viewBox="0 0 16 10" fill="none" xmlns="http://www.w3.org/2000/svg">
<g id="Icon">
<path d="M8 3.26923C6.95357 3.26923 6.10526 4.04412 6.10526 5C6.10526 5.95588 6.95357 6.73077 8 6.73077C9.04643 6.73077 9.89474 5.95588 9.89474 5C9.89474 4.04412 9.04643 3.26923 8 3.26923Z" fill="var(--fill-0, white)"/>
<path fill-rule="evenodd" clip-rule="evenodd" d="M8 0C5.79556 0 3.81306 0.808759 2.38452 1.81027C1.66932 2.31168 1.08247 2.86856 0.670729 3.41052C0.26683 3.94216 0 4.50118 0 5C0 5.49882 0.26683 6.05784 0.670729 6.58948C1.08247 7.13144 1.66932 7.68832 2.38452 8.18973C3.81306 9.19124 5.79556 10 8 10C10.2044 10 12.1869 9.19124 13.6155 8.18973C14.3307 7.68832 14.9175 7.13144 15.3293 6.58948C15.7332 6.05784 16 5.49882 16 5C16 4.50118 15.7332 3.94216 15.3293 3.41052C14.9175 2.86856 14.3307 2.31168 13.6155 1.81027C12.1869 0.808759 10.2044 0 8 0ZM4.84211 5C4.84211 3.40687 6.25594 2.11538 8 2.11538C9.74406 2.11538 11.1579 3.40687 11.1579 5C11.1579 6.59313 9.74406 7.88462 8 7.88462C6.25594 7.88462 4.84211 6.59313 4.84211 5Z" fill="var(--fill-0, white)"/>
</g>
</svg>
