<svg preserveAspectRatio="none" width="100%" height="100%" overflow="visible" style="display: block;" viewBox="0 0 16 12" fill="none" xmlns="http://www.w3.org/2000/svg">
<g id="Shape">
<path d="M0 1C0 0.447715 0.397969 0 0.888889 0H15.1111C15.602 0 16 0.447715 16 1C16 1.55228 15.602 2 15.1111 2H0.888889C0.39797 2 0 1.55228 0 1Z" fill="white"/>
<path d="M0 6C0 5.44772 0.397969 5 0.888889 5H15.1111C15.602 5 16 5.44772 16 6C16 6.55228 15.602 7 15.1111 7H0.888889C0.39797 7 0 6.55228 0 6Z" fill="white"/>
<path d="M0 11C0 10.4477 0.397969 10 0.888889 10H15.1111C15.602 10 16 10.4477 16 11C16 11.5523 15.602 12 15.1111 12H0.888889C0.39797 12 0 11.5523 0 11Z" fill="white"/>
</g>
</svg>
