<svg preserveAspectRatio="none" width="100%" height="100%" overflow="visible" style="display: block;" viewBox="0 0 12 15" fill="none" xmlns="http://www.w3.org/2000/svg">
<path id="Shape" fill-rule="evenodd" clip-rule="evenodd" d="M0 1.5C0 0.671573 0.671573 0 1.5 0H7.62868C8.0265 0 8.40804 0.158035 8.68934 0.43934L11.5607 3.31066C11.842 3.59197 12 3.9735 12 4.37132V13.5C12 14.3284 11.3284 15 10.5 15H1.5C0.671573 15 0 14.3284 0 13.5V1.5ZM3 4.5C2.58579 4.5 2.25 4.83579 2.25 5.25C2.25 5.66421 2.58579 6 3 6H4.5C4.91421 6 5.25 5.66421 5.25 5.25C5.25 4.83579 4.91421 4.5 4.5 4.5H3ZM2.25 8.25C2.25 7.83579 2.58579 7.5 3 7.5H6C6.41421 7.5 6.75 7.83579 6.75 8.25C6.75 8.66421 6.41421 9 6 9H3C2.58579 9 2.25 8.66421 2.25 8.25ZM2.25 11.25C2.25 10.8358 2.58579 10.5 3 10.5H7.5C7.91421 10.5 8.25 10.8358 8.25 11.25C8.25 11.6642 7.91421 12 7.5 12H3C2.58579 12 2.25 11.6642 2.25 11.25Z" fill="var(--fill-0, white)"/>
</svg>
