<svg preserveAspectRatio="none" width="100%" height="100%" overflow="visible" style="display: block;" viewBox="0 0 14.2418 16.2012" fill="none" xmlns="http://www.w3.org/2000/svg">
<g id="Group 1000003133">
<path id="Vector" d="M5.52184 2.72781L5.73612 3.15954C5.93074 3.55133 5.72724 4.02426 5.30883 4.15296C0.403923 5.94454 0.975751 13.1666 6.06958 14.167C12.1042 15.3525 14.8194 7.05777 9.42256 4.3609C9.39404 4.34632 9.36424 4.33427 9.33381 4.32413L8.89575 4.17198C8.49192 4.03187 8.30237 3.56908 8.49255 3.18616L8.72078 2.72717C8.88307 2.40005 9.26598 2.25234 9.60768 2.37913C11.7542 3.17285 13.4488 5.0367 14.0187 7.26445C15.0673 11.3649 12.3052 15.5592 8.11281 16.1329C3.2358 16.8005 -0.798055 12.4699 0.135127 7.6518C0.599815 5.25225 2.36982 3.21596 4.64571 2.37533C4.98361 2.25044 5.36145 2.40512 5.52121 2.72781H5.52184Z" fill="var(--fill-0, white)"/>
<path id="Vector_2" d="M8.64836 0.749344L7.59726 2.86868C7.40707 3.25159 6.86187 3.2535 6.66915 2.87185L5.60094 0.752514C5.42723 0.407638 5.67765 0 6.06436 0H8.18367C8.56848 0 8.81953 0.404468 8.64836 0.749344Z" fill="var(--fill-0, white)"/>
<path id="Vector_3" d="M7.59554 7.59817V4.97673C7.59554 4.90256 7.66084 4.84487 7.73438 4.85311C8.41651 4.92918 9.08407 5.217 9.63307 5.62654C9.69393 5.67155 9.70154 5.75967 9.64829 5.81356L7.80792 7.68439C7.78446 7.70848 7.75149 7.72179 7.71789 7.72116C7.65006 7.72052 7.59554 7.66473 7.59554 7.59753V7.59817Z" fill="var(--fill-0, white)"/>
<path id="Vector_4" d="M5.66885 8.57588H3.04681C2.97264 8.57588 2.91495 8.51058 2.92319 8.43704C2.99927 7.7549 3.28708 7.08734 3.69662 6.53896C3.74163 6.4781 3.82975 6.47049 3.88363 6.52375L5.75507 8.36414C5.77916 8.3876 5.79247 8.42056 5.79184 8.45416C5.7912 8.522 5.73542 8.57652 5.66822 8.57652L5.66885 8.57588Z" fill="var(--fill-0, white)"/>
<path id="Vector_5" d="M5.69237 9.5244C5.76274 9.5244 5.82169 9.58336 5.81662 9.65373C5.81472 9.67592 5.80838 9.69367 5.79443 9.69937L3.88496 11.5765C3.83108 11.6298 3.74296 11.6222 3.69795 11.5613C3.28778 11.0129 3.0006 10.3454 2.92452 9.66324C2.91628 9.58906 2.97334 9.5244 3.04814 9.5244H5.69364H5.69237Z" fill="var(--fill-0, white)"/>
<path id="Vector_6" d="M7.73438 13.2469C7.6602 13.2551 7.59554 13.1981 7.59554 13.1233V10.3795C7.59554 10.37 7.74769 10.3294 7.77051 10.377L9.64829 12.2858C9.70154 12.3397 9.69393 12.4278 9.63307 12.4728C9.08407 12.8824 8.41651 13.1702 7.73438 13.2463V13.2469Z" fill="var(--fill-0, white)"/>
<path id="Vector_7" d="M6.50707 4.85441C6.58124 4.84617 6.6459 4.90323 6.6459 4.97803V7.72183C6.6459 7.73133 6.49376 7.77191 6.47093 7.72436L4.59316 5.8155C4.53991 5.76161 4.54751 5.67349 4.60837 5.62848C5.15611 5.22021 5.8262 4.93176 6.50707 4.85505V4.85441Z" fill="var(--fill-0, white)"/>
<path id="Vector_8" d="M11.318 8.4364C11.3262 8.51057 11.2692 8.57523 11.1944 8.57523H8.44996C8.44045 8.57523 8.39988 8.42308 8.44743 8.40026L10.3569 6.5231C10.4108 6.46984 10.4989 6.47745 10.5439 6.53831C10.9522 7.08606 11.2406 7.75615 11.3173 8.4364H11.318Z" fill="var(--fill-0, white)"/>
<path id="Vector_9" d="M11.318 9.66454C11.2413 10.3448 10.9528 11.0149 10.5446 11.5626C10.4996 11.6235 10.4114 11.6311 10.3576 11.5778L8.44809 9.70067C8.40054 9.67785 8.44112 9.5257 8.45063 9.5257H11.195C11.2692 9.5257 11.3269 9.591 11.3186 9.66454H11.318Z" fill="var(--fill-0, white)"/>
<path id="Vector_10" d="M6.6459 10.5013V13.1227C6.6459 13.1969 6.58061 13.2546 6.50707 13.2464C5.82684 13.1696 5.15611 12.8812 4.60837 12.4729C4.54751 12.4279 4.53991 12.3398 4.59316 12.2859L6.43353 10.4151C6.45699 10.391 6.48995 10.3777 6.52355 10.3783C6.59138 10.3789 6.6459 10.4347 6.6459 10.5019V10.5013Z" fill="var(--fill-0, white)"/>
<path id="Vector_11" d="M6.9628 8.3394C7.91817 8.14351 8.18126 9.57626 7.27851 9.76138C6.33582 9.95474 6.0518 8.52642 6.9628 8.3394Z" fill="var(--fill-0, white)"/>
</g>
</svg>
